<svg width="49" height="49" viewBox="0 0 49 49" fill="none" xmlns="http://www.w3.org/2000/svg">
<g id="noto-v1:clinking-beer-mugs" clip-path="url(#clip0)">
<path id="Vector" d="M34.8523 11.7304L32.2804 13.9725C32.0691 14.156 31.7494 13.9404 31.8455 13.6754L32.9965 10.4626C33.0575 10.2959 33.2597 10.2274 33.4059 10.3281L34.8269 11.2987C34.9731 11.3994 34.9852 11.6134 34.8523 11.7304Z" fill="#FF6F00"/>
<path id="Vector_2" d="M36.2681 16.2477L32.9009 15.706C32.6252 15.6611 32.5879 15.2767 32.8517 15.1802L36.0557 14.0106C36.0948 13.9962 36.1368 13.991 36.1783 13.9953C36.2198 13.9997 36.2597 14.0135 36.2951 14.0357C36.3304 14.0579 36.3601 14.0879 36.3821 14.1234C36.404 14.159 36.4174 14.199 36.4214 14.2406L36.5847 15.9519C36.5998 16.1296 36.4453 16.2763 36.2681 16.2477Z" fill="#FF6F00"/>
<path id="Vector_3" d="M30.6372 10.096L30.6113 13.5064C30.6075 13.7876 30.2349 13.8814 30.1007 13.6358L28.458 10.6468C28.4379 10.6102 28.4265 10.5696 28.4247 10.5279C28.4228 10.4863 28.4305 10.4448 28.4472 10.4066C28.4639 10.3684 28.4891 10.3346 28.521 10.3077C28.5528 10.2808 28.5904 10.2616 28.6309 10.2515L30.2994 9.8301C30.4713 9.78366 30.6383 9.91718 30.6372 10.096Z" fill="#FF6F00"/>
<g id="Group">
<path id="Vector_4" d="M17.9261 12.8427L17.1409 12.3833L9.98445 23.707C8.75884 25.591 11.0232 28.0895 13.5863 29.7606L22.6161 15.8965L17.9261 12.8427Z" fill="#E0E0E0"/>
<path id="Vector_5" d="M27.2998 18.9501L28.0378 19.4827L20.5752 30.6073C19.3496 32.4912 16.1469 31.4304 13.5825 29.7617L22.6123 15.8976L27.2998 18.9501Z" fill="#E0E0E0"/>
</g>
<path id="Vector_6" d="M23.4434 14.6245C22.08 13.7373 20.7038 13.0636 19.5693 12.7258C18.593 12.4351 17.8991 12.4382 17.7089 12.727C17.5212 13.017 17.8002 13.6522 18.4586 14.4299C19.2254 15.333 20.3986 16.3202 21.762 17.2075C23.1254 18.0948 24.5016 18.7685 25.6361 19.1063C26.6124 19.397 27.3063 19.3938 27.4965 19.1051C27.6842 18.815 27.4052 18.1799 26.7467 17.4021C25.9775 16.4978 24.8043 15.5106 23.4434 14.6245Z" fill="#FAFAFA"/>
<path id="Vector_7" d="M15.4561 17.3531L11.4408 23.6292C11.2544 24.008 11.3212 24.5303 11.5954 24.9678C12.0862 25.7471 13.2539 26.9581 14.7747 27.9488C16.2273 28.8948 17.6507 29.4103 18.5637 29.5738C19.1424 29.6779 19.7595 29.5312 20.0323 29.2348L24.1704 23.0316" fill="#FBCC2F"/>
<path id="Vector_8" d="M24.1755 23.0309C24.5623 22.4371 22.924 20.6846 20.5165 19.1165C18.1089 17.5485 15.8437 16.7587 15.4569 17.3526C15.0702 17.9464 16.7084 19.6989 19.116 21.2669C21.5235 22.8349 23.7888 23.6247 24.1755 23.0309Z" fill="#E5A315"/>
<path id="Vector_9" d="M21.5846 17.4783C18.4774 15.4536 16.5703 13.2562 17.1499 12.3663C17.7295 11.4764 20.5098 12.3315 23.617 14.3562C26.7242 16.3809 28.6313 18.5783 28.0517 19.4682C27.4734 20.3557 24.6931 19.5006 21.5846 17.4783ZM23.4434 14.6252C22.08 13.7379 20.7038 13.0642 19.5693 12.7264C18.593 12.4357 17.899 12.4389 17.7089 12.7276C17.5212 13.0177 17.8002 13.6528 18.4586 14.4306C19.2254 15.3336 20.3986 16.3208 21.762 17.2081C23.1254 18.0954 24.5016 18.7691 25.6361 19.1069C26.6124 19.3976 27.3063 19.3944 27.4965 19.1057C27.6842 18.8157 27.4052 18.1805 26.7467 17.4027C25.9775 16.4984 24.8043 15.5112 23.4434 14.6252Z" fill="#CECFD1"/>
<g id="Group_2">
<path id="Vector_10" d="M17.6745 28.2779C17.7495 28.1628 17.7169 28.0087 17.6018 27.9337C17.4866 27.8587 17.3325 27.8912 17.2575 28.0064C17.1825 28.1215 17.2151 28.2756 17.3302 28.3506C17.4454 28.4256 17.5995 28.3931 17.6745 28.2779Z" fill="#E5A315"/>
<path id="Vector_11" d="M18.4426 27.9651C18.494 27.8862 18.4717 27.7806 18.3928 27.7292C18.3138 27.6778 18.2082 27.7001 18.1568 27.779C18.1054 27.8579 18.1277 27.9635 18.2066 28.0149C18.2855 28.0663 18.3912 28.044 18.4426 27.9651Z" fill="#E5A315"/>
<path id="Vector_12" d="M17.8053 27.1688C17.8963 27.0291 17.8568 26.8421 17.7171 26.7511C17.5774 26.6601 17.3904 26.6996 17.2994 26.8393C17.2084 26.979 17.2479 27.1661 17.3876 27.2571C17.5273 27.3481 17.7143 27.3086 17.8053 27.1688Z" fill="#E5A315"/>
<path id="Vector_13" d="M18.8574 27.4844C18.9509 27.3408 18.9103 27.1486 18.7667 27.0551C18.6231 26.9616 18.4309 27.0022 18.3373 27.1458C18.2438 27.2894 18.2844 27.4816 18.428 27.5751C18.5716 27.6686 18.7638 27.628 18.8574 27.4844Z" fill="#E5A315"/>
<path id="Vector_14" d="M18.6969 25.7994C18.7719 25.6843 18.7393 25.5301 18.6242 25.4552C18.509 25.3802 18.3549 25.4127 18.2799 25.5279C18.2049 25.643 18.2375 25.7971 18.3526 25.8721C18.4678 25.9471 18.6219 25.9145 18.6969 25.7994Z" fill="#E5A315"/>
<path id="Vector_15" d="M19.1554 26.2406C19.222 26.1384 19.1931 26.0016 19.0909 25.935C18.9887 25.8684 18.8519 25.8973 18.7853 25.9995C18.7187 26.1017 18.7476 26.2385 18.8498 26.3051C18.952 26.3717 19.0888 26.3428 19.1554 26.2406Z" fill="#E5A315"/>
<path id="Vector_16" d="M20.7185 25.5594C20.785 25.4572 20.7561 25.3204 20.6539 25.2538C20.5517 25.1873 20.4149 25.2162 20.3484 25.3184C20.2818 25.4206 20.3107 25.5574 20.4129 25.6239C20.5151 25.6905 20.6519 25.6616 20.7185 25.5594Z" fill="#E5A315"/>
<path id="Vector_17" d="M19.7081 23.3311C19.7923 23.2018 19.7558 23.0286 19.6264 22.9443C19.497 22.8601 19.3238 22.8966 19.2396 23.026C19.1553 23.1554 19.1919 23.3286 19.3213 23.4128C19.4506 23.4971 19.6238 23.4605 19.7081 23.3311Z" fill="#E5A315"/>
<path id="Vector_18" d="M19.8302 25.8326C19.933 25.6747 19.8883 25.4635 19.7305 25.3607C19.5727 25.2579 19.3614 25.3025 19.2586 25.4603C19.1558 25.6181 19.2004 25.8294 19.3583 25.9322C19.5161 26.035 19.7274 25.9904 19.8302 25.8326Z" fill="#E5A315"/>
<path id="Vector_19" d="M19.6496 24.4601C19.7507 24.3048 19.7068 24.097 19.5516 23.9959C19.3963 23.8948 19.1885 23.9387 19.0874 24.0939C18.9863 24.2492 19.0302 24.457 19.1854 24.5581C19.3406 24.6592 19.5485 24.6153 19.6496 24.4601Z" fill="#E5A315"/>
<path id="Vector_20" d="M20.7576 24.6949C20.8326 24.5798 20.8 24.4257 20.6849 24.3507C20.5697 24.2757 20.4156 24.3082 20.3406 24.4234C20.2656 24.5385 20.2982 24.6926 20.4133 24.7676C20.5284 24.8426 20.6826 24.8101 20.7576 24.6949Z" fill="#E5A315"/>
</g>
<path id="Vector_21" d="M16.7044 13.0449C16.7044 13.0449 16.0593 13.2275 14.6421 12.6208C13.4289 12.1006 11.8504 11.9581 9.60149 15.6512C7.64022 18.873 7.59928 19.8714 9.14776 21.4964C10.4965 22.9111 10.2068 23.3498 10.2068 23.3498L11.3714 23.3067L13.917 19.3988L17.1827 14.2929L16.7044 13.0449ZM13.4059 17.9891C12.5492 19.3054 11.7928 20.3304 10.8322 19.7049C9.81097 19.0385 10.5042 17.9713 11.3621 16.6588C12.2187 15.3426 12.9145 14.2767 13.9357 14.9431C14.9558 15.6057 14.2625 16.6729 13.4059 17.9891Z" fill="#E0E0E0"/>
<path id="Vector_22" d="M19.1659 30.4423C18.9145 30.6364 18.3019 30.9083 17.2148 30.6798C16.5453 30.5383 15.6382 30.211 15.0309 29.724C14.9023 29.6197 15.0325 29.514 15.1394 29.5567C15.7436 29.8124 16.3623 30.0095 17.1479 30.1638C18.1705 30.3651 18.9968 30.2825 19.1081 30.2802C19.2945 30.2727 19.2076 30.4103 19.1659 30.4423Z" fill="white"/>
<path id="Vector_23" d="M18.4707 17.061C18.3538 16.7393 18.2786 16.4708 18.0596 16.1153C17.9556 15.9451 17.7266 15.7794 17.507 15.6502L14.8838 19.7508C14.8594 19.798 14.8263 19.9351 14.9304 20.0928C15.0199 20.224 15.6079 20.8521 16.0746 21.2884C16.2019 21.3952 16.3296 21.3856 16.3768 21.3188L18.8019 17.6318C18.6545 17.436 18.5274 17.2193 18.4707 17.061Z" fill="white"/>
<path id="Vector_24" d="M14.3584 13.1698C13.855 12.9505 13.4415 12.9287 12.9131 13.0804C12.5528 13.1868 11.9356 13.5286 11.6426 14.0222C11.6221 14.062 11.5079 14.2767 11.5973 14.3229C11.7364 14.3948 11.8757 14.2592 11.9303 14.1961C12.1118 13.9973 12.7312 13.5843 13.0162 13.5018C13.5621 13.3467 14.0398 13.5306 14.2478 13.5847C14.3699 13.6163 14.7132 13.6585 14.7546 13.554C14.8219 13.3874 14.4628 13.2175 14.3584 13.1698Z" fill="white"/>
<path id="Vector_25" d="M21.4646 9.57739C21.2231 9.59414 20.9812 9.6359 20.7483 9.569C20.3572 9.45497 20.097 9.09388 19.6693 9.00811C18.4598 8.76679 17.4966 9.26644 17.2293 10.4594C17.1389 10.8595 16.9153 10.9327 16.6243 11.1914C15.8282 11.9096 15.7206 13.4022 16.6123 14.1306C17.1453 14.5666 17.873 14.6565 18.3936 15.0798C18.8314 15.4383 18.7909 16.0341 19.1014 16.4684C19.3959 16.8787 19.8116 17.2068 20.2382 17.4651C20.8124 17.8154 21.8383 17.858 22.0909 18.5991C22.4817 19.7483 21.1174 20.7014 21.7027 21.8946C21.9412 22.3829 22.5111 22.6744 23.0362 22.6814C24.0412 22.6975 24.4765 21.6543 25.1317 21.0993C25.3062 20.9503 25.4879 20.8303 25.7267 20.8247C25.9631 20.8179 26.1249 20.9676 26.3518 21.0157C26.656 21.0785 26.9671 21.0977 27.273 21.0356C27.6279 20.9578 27.7372 20.4542 28.14 20.6184C28.2657 20.6676 28.4503 20.7001 28.5766 20.693C29.2687 20.6448 29.8324 20.0048 29.803 19.313C29.7926 19.059 29.7304 18.9482 29.8435 18.7171C29.9464 18.506 30.1008 18.3655 30.1566 18.1175C30.2948 17.5092 30.0491 16.907 29.6352 16.4476C29.5601 16.3615 29.475 16.2766 29.3898 16.198C29.2478 16.0648 29.1203 15.9705 29.0717 15.7723C29.0455 15.6707 29.0547 15.5496 29.0598 15.4484C29.0649 15.1646 28.9997 14.8949 28.9045 14.6286C28.6276 13.8372 27.9515 13.258 27.2036 12.9028C27.0011 12.8076 26.7942 12.7635 26.5748 12.7131C26.0264 12.5869 26.0443 12.1808 25.8112 11.7613C25.5206 11.2398 24.9965 10.8902 24.4659 10.6443C24.1528 10.5013 23.8348 10.532 23.5105 10.4714C23.1339 10.4025 23.0252 10.2048 22.7431 9.98968C22.4918 9.80001 22.1683 9.68313 21.8631 9.60401C21.736 9.56979 21.601 9.56922 21.4646 9.57739Z" fill="#E9E2CF"/>
<path id="Vector_26" d="M30.3808 18.3714C30.0147 18.7266 29.4576 18.8729 28.9655 18.7412C28.4734 18.6096 28.0612 18.2077 27.9215 17.7169C27.6488 17.8183 27.3823 17.3721 27.2172 17.3749C27.0521 17.3777 26.3541 17.9609 25.9172 17.7287C25.4702 17.869 24.9517 17.7457 24.6122 17.4224C24.2728 17.099 24.4423 16.211 24.247 16.1322C24.0518 16.0533 23.793 16.2373 23.5944 16.1284C23.4964 16.0745 23.4062 15.9933 23.2952 15.9706C23.0683 15.9225 22.8606 16.1235 22.6292 16.1329C22.4077 16.1412 22.2199 15.9748 22.0031 15.9194C21.8649 15.8826 21.7196 15.8956 21.5772 15.8912C21.0098 15.8748 20.4546 15.5973 20.1031 15.1512C19.9284 14.9263 19.8044 14.6662 19.7398 14.3889C19.6751 14.1116 19.6712 13.8235 19.7283 13.5445C19.2715 13.6734 18.4506 13.4473 18.2832 13.2538C18.1133 13.059 17.6405 13.3464 17.3309 13.221C17.0026 13.089 16.6644 12.9519 16.4051 12.7109C16.1457 12.4699 15.977 12.0963 16.0778 11.755C15.7161 12.0652 15.3026 12.3172 14.8601 12.4976C15.5933 13.6664 16.3252 14.8378 17.0584 16.0067C17.1588 16.1656 17.2591 16.3307 17.2991 16.515C17.3896 16.9426 17.1274 17.3829 17.2041 17.8128C17.2879 18.2715 17.7203 18.5674 18.1147 18.809C18.4941 19.0429 18.8735 19.2768 19.2542 19.5145C19.4302 19.6244 19.6162 19.7394 19.7176 19.9208C20.0047 20.4185 19.5285 21.0535 19.6723 21.6093C19.7854 22.0359 20.2184 22.2818 20.6121 22.4759C21.7212 23.0272 22.8392 23.5674 23.9598 24.0963C24.0629 24.1465 24.1723 24.1967 24.2872 24.2057C24.447 24.2191 24.5992 24.1562 24.7462 24.0969C25.9335 23.6238 27.1834 23.3264 28.4564 23.2141C28.7794 23.1859 29.1135 23.1667 29.3968 23.0142C29.6525 22.8789 29.8444 22.6476 30.0287 22.4251C30.2244 22.1864 30.4239 21.9465 30.6197 21.7079C30.7023 21.609 30.7874 21.5051 30.8241 21.3793C30.8752 21.2074 30.8289 21.023 30.7913 20.8462C30.6951 20.3899 30.6698 19.9215 30.7162 19.4574C30.7392 19.2364 30.776 19.0131 30.7352 18.7938C30.6931 18.5769 30.5472 18.3599 30.329 18.3132" fill="#E2D2BA"/>
<path id="Vector_27" d="M23.195 18.959C23.3227 19.412 23.0738 19.8876 22.8369 20.3032C22.5923 20.7338 22.2284 21.5716 22.538 21.7032C22.7684 21.7689 22.9665 21.544 23.1004 21.3457C23.4283 20.8575 23.7664 20.3495 23.853 19.768C23.8902 19.5135 23.8752 19.2382 23.7418 19.0213C23.6194 18.8259 23.1525 18.4933 23.195 18.959Z" fill="#F7EFDA"/>
<g id="Group_3">
<g id="Group_4">
<path id="Vector_28" d="M35.9307 26.2691L36.7712 26.6218L32.0229 39.1494C31.2555 41.2608 27.8964 40.9531 25.0211 39.9104L30.674 24.3605L35.9307 26.2691Z" fill="#E0E0E0"/>
<path id="Vector_29" d="M25.4149 22.4445L24.5471 22.1753L20.1409 34.8263C19.3736 36.9377 22.1433 38.8604 25.0212 39.9043L30.6741 24.3544L25.4149 22.4445Z" fill="#E0E0E0"/>
</g>
<path id="Vector_30" d="M31.1909 22.9289C32.7187 23.4858 34.0847 24.1793 35.0379 24.8861C35.855 25.491 36.2713 26.0492 36.1544 26.3727C36.0363 26.6987 35.3602 26.8559 34.3433 26.7959C33.159 26.725 31.6658 26.381 30.1404 25.8254C28.6151 25.2698 27.2466 24.5749 26.2959 23.8695C25.4789 23.2646 25.0625 22.7064 25.1794 22.3829C25.2976 22.0569 25.9736 21.8997 26.9905 21.9597C28.1698 22.0281 29.6642 22.3757 31.1909 22.9289Z" fill="#FAFAFA"/>
<path id="Vector_31" d="M33.8098 30.9507L31.2078 37.9322C31.0189 38.3098 30.5603 38.5699 30.0446 38.6117C29.1247 38.6869 27.4558 38.4819 25.7525 37.8626C24.1239 37.2693 22.8585 36.4421 22.1756 35.809C21.7447 35.4069 21.4912 34.8258 21.5665 34.4305L24.0367 27.3934" fill="#FBCC2F"/>
<path id="Vector_32" d="M28.484 30.381C31.1843 31.3625 33.5696 31.6183 33.8117 30.9523C34.0537 30.2863 32.061 28.9507 29.3607 27.9691C26.6603 26.9876 24.2751 26.7318 24.033 27.3978C23.7909 28.0638 25.7837 29.3994 28.484 30.381Z" fill="#E5A315"/>
<path id="Vector_33" d="M24.5511 22.1554C24.9133 21.1563 27.8162 21.3604 31.3 22.6263C34.7862 23.8935 37.1388 25.6005 36.7765 26.5996C36.4142 27.5987 33.5113 27.3946 30.0276 26.1287C26.5438 24.8628 24.1888 23.1545 24.5511 22.1554ZM26.988 21.9581C25.9711 21.8982 25.2951 22.0554 25.1769 22.3814C25.0587 22.7073 25.4764 23.2631 26.2934 23.868C27.2466 24.5747 28.6126 25.2682 30.1379 25.8239C31.6633 26.3795 33.159 26.7247 34.3408 26.7944C35.3577 26.8543 36.0338 26.6971 36.1519 26.3711C36.2701 26.0452 35.8525 25.4894 35.0354 24.8845C34.0822 24.1778 32.7162 23.4843 31.1884 22.9273C29.6605 22.3704 28.1698 22.0278 26.988 21.9581Z" fill="#CECFD1"/>
<g id="Group_5">
<path id="Vector_34" d="M23.8954 36.0653C24.0246 36.1123 24.1673 36.0457 24.2142 35.9165C24.2612 35.7874 24.1945 35.6446 24.0654 35.5977C23.9363 35.5507 23.7935 35.6174 23.7466 35.7465C23.6996 35.8757 23.7663 36.0184 23.8954 36.0653Z" fill="#E5A315"/>
<path id="Vector_35" d="M23.6395 35.1625C23.7281 35.1946 23.8259 35.149 23.8581 35.0605C23.8902 34.972 23.8446 34.8741 23.7561 34.8419C23.6675 34.8098 23.5697 34.8554 23.5375 34.944C23.5054 35.0325 23.551 35.1303 23.6395 35.1625Z" fill="#E5A315"/>
<path id="Vector_36" d="M24.7362 35.3606C24.8929 35.4175 25.0661 35.3367 25.1231 35.18C25.18 35.0233 25.0992 34.85 24.9425 34.7931C24.7858 34.7361 24.6125 34.817 24.5556 34.9737C24.4986 35.1304 24.5795 35.3036 24.7362 35.3606Z" fill="#E5A315"/>
<path id="Vector_37" d="M23.8569 34.72C24.018 34.7786 24.196 34.6955 24.2546 34.5344C24.3131 34.3733 24.23 34.1953 24.0689 34.1368C23.9079 34.0782 23.7299 34.1613 23.6713 34.3224C23.6128 34.4834 23.6959 34.6615 23.8569 34.72Z" fill="#E5A315"/>
<path id="Vector_38" d="M25.2643 33.7582C25.3935 33.8052 25.5362 33.7385 25.5832 33.6094C25.6301 33.4802 25.5635 33.3375 25.4343 33.2906C25.3052 33.2436 25.1624 33.3103 25.1155 33.4394C25.0686 33.5685 25.1352 33.7113 25.2643 33.7582Z" fill="#E5A315"/>
<path id="Vector_39" d="M24.6177 33.6195C24.7323 33.6611 24.859 33.602 24.9007 33.4874C24.9423 33.3727 24.8832 33.246 24.7686 33.2044C24.6539 33.1627 24.5272 33.2218 24.4856 33.3365C24.4439 33.4511 24.503 33.5778 24.6177 33.6195Z" fill="#E5A315"/>
<path id="Vector_40" d="M24.2223 31.9613C24.3369 32.0029 24.4636 31.9438 24.5053 31.8291C24.547 31.7145 24.4878 31.5878 24.3732 31.5461C24.2586 31.5045 24.1319 31.5636 24.0902 31.6783C24.0485 31.7929 24.1077 31.9196 24.2223 31.9613Z" fill="#E5A315"/>
<path id="Vector_41" d="M26.6445 31.5038C26.7896 31.5565 26.95 31.4816 27.0028 31.3365C27.0555 31.1914 26.9806 31.0311 26.8355 30.9783C26.6904 30.9256 26.53 31.0004 26.4773 31.1455C26.4246 31.2906 26.4994 31.451 26.6445 31.5038Z" fill="#E5A315"/>
<path id="Vector_42" d="M24.6105 32.9914C24.7875 33.0558 24.9831 32.9645 25.0475 32.7874C25.1118 32.6104 25.0205 32.4147 24.8435 32.3504C24.6665 32.2861 24.4708 32.3774 24.4064 32.5544C24.3421 32.7314 24.4334 32.9271 24.6105 32.9914Z" fill="#E5A315"/>
<path id="Vector_43" d="M25.8116 32.3033C25.9857 32.3665 26.1782 32.2767 26.2415 32.1026C26.3048 31.9285 26.2149 31.736 26.0408 31.6727C25.8667 31.6094 25.6742 31.6993 25.6109 31.8734C25.5476 32.0475 25.6375 32.24 25.8116 32.3033Z" fill="#E5A315"/>
<path id="Vector_44" d="M24.9066 31.4496C25.0357 31.4966 25.1784 31.4299 25.2254 31.3008C25.2723 31.1716 25.2057 31.0289 25.0766 30.982C24.9474 30.935 24.8047 31.0017 24.7577 31.1308C24.7108 31.2599 24.7774 31.4027 24.9066 31.4496Z" fill="#E5A315"/>
</g>
<path id="Vector_45" d="M38.6879 34.6081C40.2898 30.5901 39.2267 29.4142 38.0827 28.76C36.7452 27.993 36.5023 27.3671 36.5023 27.3671L35.2171 27.7349L33.1003 33.4127L31.5072 37.7973L32.1745 38.7527C32.1745 38.7527 32.3524 38.2562 34.2923 38.4849C36.5218 38.7437 37.2917 38.1126 38.6879 34.6081ZM34.7112 36.0612C33.6363 35.6692 34.0003 34.4475 34.5352 32.9744C35.0702 31.5013 35.5064 30.3044 36.6535 30.7212C37.8007 31.1379 37.3645 32.3348 36.8295 33.808C36.2921 35.2798 35.8559 36.4767 34.7112 36.0612Z" fill="#E0E0E0"/>
<path id="Vector_46" d="M30.5838 39.3338C30.3767 39.5761 29.8326 39.9651 28.7199 39.9626C28.0348 39.9609 27.0789 39.8255 26.3873 39.4711C26.2383 39.3941 26.3463 39.2643 26.4573 39.287C27.0994 39.4144 27.7474 39.4819 28.5477 39.4739C29.5918 39.463 30.3816 39.2135 30.4895 39.1875C30.6764 39.1425 30.6193 39.2955 30.5838 39.3338Z" fill="white"/>
<path id="Vector_47" d="M37.8139 29.3165C38.2929 29.5893 38.5587 29.9029 38.7518 30.4182C38.8846 30.77 38.9802 31.4677 38.7618 31.9999C38.7437 32.0409 38.6408 32.2583 38.5501 32.2146C38.4085 32.1477 38.4361 31.9542 38.4497 31.8732C38.4982 31.6088 38.4582 30.8643 38.3494 30.5878C38.1453 30.0574 37.7088 29.7877 37.5431 29.6517C37.4429 29.5716 37.2037 29.3221 37.265 29.2279C37.3633 29.0742 37.7147 29.2589 37.8139 29.3165Z" fill="white"/>
<path id="Vector_48" d="M36.4128 21.4774C36.5452 21.6779 36.6572 21.8995 36.8503 22.0434C37.1746 22.2865 37.6198 22.2775 37.9447 22.5682C38.8639 23.3895 39.0446 24.4584 38.2543 25.3905C37.9888 25.7033 38.0658 25.9256 38.0319 26.314C37.9362 27.3817 36.809 28.363 35.6912 28.0904C35.0232 27.9276 34.514 27.3969 33.861 27.2356C33.3115 27.0994 32.8599 27.4922 32.3259 27.5025C31.8218 27.5157 31.3098 27.38 30.8459 27.1937C30.2204 26.9428 29.5722 26.1514 28.8262 26.3952C27.6747 26.7722 27.7298 28.4371 26.4274 28.6859C25.8934 28.7875 25.317 28.5084 24.9988 28.0953C24.383 27.3018 24.9525 26.328 25.0041 25.4673C25.0184 25.2387 25.0051 25.0209 24.8665 24.8265C24.7278 24.6321 24.512 24.593 24.339 24.4406C24.1055 24.2349 23.9011 23.9971 23.7699 23.7153C23.6168 23.3844 23.9559 22.9964 23.5813 22.7713C23.466 22.7022 23.3314 22.5729 23.2603 22.4669C22.8818 21.8842 23.0543 21.0513 23.626 20.6577C23.8355 20.5142 23.9607 20.4971 24.0801 20.2662C24.188 20.0576 24.207 19.8503 24.3734 19.6563C24.7774 19.1791 25.406 19.0163 26.0204 19.0695C26.1353 19.0786 26.2526 19.0952 26.3673 19.1167C26.5607 19.1506 26.7126 19.1976 26.8975 19.1138C26.9943 19.0726 27.0854 18.9938 27.1663 18.9287C27.3912 18.7554 27.6465 18.6451 27.9139 18.5599C28.7125 18.3056 29.5826 18.4973 30.3151 18.8823C30.5138 18.985 30.672 19.1234 30.845 19.2695C31.2778 19.6316 31.59 19.3745 32.0648 19.3084C32.6548 19.2263 33.2508 19.4369 33.766 19.7126C34.0688 19.8755 34.2352 20.1503 34.4785 20.3736C34.7588 20.6349 34.9843 20.6005 35.3243 20.6976C35.6282 20.7854 35.9145 20.9743 36.1594 21.1701C36.257 21.2552 36.3393 21.3639 36.4128 21.4774Z" fill="#E9E2CF"/>
<path id="Vector_49" d="M24.0248 19.6368C23.9618 20.1423 24.1796 20.6766 24.5805 20.9908C24.9813 21.305 25.5528 21.3927 26.0279 21.2103C26.1104 21.489 26.6287 21.4359 26.7232 21.5697C26.8176 21.7035 26.7729 22.6119 27.2214 22.8217C27.3805 23.2627 27.7885 23.6058 28.2501 23.6807C28.7117 23.7557 29.3208 23.0888 29.5006 23.1975C29.6805 23.3062 29.6887 23.6251 29.8962 23.7167C29.9981 23.763 30.1154 23.7859 30.2031 23.8596C30.3799 24.0107 30.3435 24.3003 30.4747 24.4909C30.601 24.6726 30.8479 24.7247 31.0223 24.8621C31.1337 24.9511 31.212 25.0734 31.3018 25.1859C31.6547 25.6295 32.2136 25.9058 32.7798 25.9184C33.0647 25.9235 33.3473 25.8664 33.608 25.7511C33.8686 25.6359 34.101 25.4652 34.2891 25.2511C34.4594 25.6947 35.1326 26.2126 35.3899 26.2324C35.6472 26.2521 35.7035 26.8005 35.9888 26.9731C36.2926 27.1585 36.6052 27.3452 36.9544 27.4062C37.3037 27.4671 37.7025 27.3775 37.9151 27.094C37.8862 27.57 37.9335 28.0507 38.0535 28.5124C36.6779 28.629 35.3035 28.7493 33.9279 28.8658C33.7401 28.882 33.5486 28.8994 33.3787 28.9784C32.9836 29.1644 32.7897 29.6369 32.3983 29.8342C31.9829 30.0411 31.4862 29.8757 31.0522 29.7048C30.6355 29.5429 30.2202 29.3785 29.806 29.2179C29.6119 29.1428 29.4092 29.0663 29.2013 29.091C28.6327 29.1621 28.4099 29.9218 27.8781 30.1409C27.4708 30.308 27.0134 30.1093 26.6197 29.9089C25.5132 29.3527 24.4093 28.7852 23.3131 28.2091C23.2113 28.1565 23.1058 28.0988 23.0282 28.0115C22.9223 27.8938 22.8794 27.7331 22.839 27.5801C22.5025 26.3472 21.9885 25.1699 21.3131 24.085C21.143 23.8114 20.9567 23.5326 20.9073 23.2144C20.8636 22.9275 20.9288 22.637 20.9988 22.3554C21.0704 22.0526 21.1445 21.751 21.2148 21.4506C21.2453 21.3247 21.2783 21.1939 21.3547 21.0887C21.4617 20.9426 21.6377 20.8699 21.8025 20.7946C22.2252 20.5978 22.6164 20.3342 22.9582 20.02C23.1215 19.8684 23.2788 19.7042 23.4763 19.6081C23.6752 19.5095 23.9367 19.4968 24.1035 19.6428" fill="#E2D2BA"/>
<path id="Vector_50" d="M27.8774 25.7349C27.44 25.9053 27.2084 26.3898 27.0187 26.8299C26.8213 27.2848 26.373 28.0789 26.079 27.9112C25.8896 27.7661 25.9498 27.4731 26.0267 27.2454C26.2192 26.6903 26.4219 26.1154 26.8339 25.6959C27.0139 25.512 27.2435 25.3601 27.4989 25.3347C27.7268 25.314 28.2733 25.4864 27.8774 25.7349Z" fill="#F7EFDA"/>
</g>
</g>
<defs>
<clipPath id="clip0">
<rect width="35.7818" height="35.7818" fill="white" transform="translate(16.9999) rotate(27.3359)"/>
</clipPath>
</defs>
</svg>
