<svg width="43" height="43" viewBox="0 0 43 43" fill="none" xmlns="http://www.w3.org/2000/svg">
<path id="code-icon" d="M30.6551 0.416989L1.2773 10.0111C0.570792 10.2418 0.186407 10.999 0.417135 11.7055L10.0112 41.0833C10.242 41.7898 10.9992 42.1742 11.7057 41.9435L41.0835 32.3494C41.79 32.1187 42.1744 31.3615 41.9436 30.655L32.3495 1.27715C32.1188 0.570646 31.3616 0.186262 30.6551 0.416989ZM21.3038 21.4094L15.7387 30.3386C15.5885 30.582 15.225 30.5373 15.1363 30.2659L14.319 27.7632C14.289 27.6714 14.303 27.5652 14.3552 27.4819L17.5361 22.3704L11.9515 20.1215C11.9054 20.1045 11.8637 20.0771 11.8299 20.0414C11.796 20.0057 11.7708 19.9628 11.7562 19.9158L10.9389 17.4131C10.8503 17.1417 11.1174 16.891 11.3823 16.9988L21.1435 20.9184C21.3409 20.9953 21.4178 21.2308 21.3038 21.4094ZM31.4219 24.9474C31.4792 25.123 31.3904 25.3111 31.2268 25.3645L23.8424 27.7761C23.6788 27.8295 23.4961 27.7301 23.4388 27.5545L22.8131 25.6386C22.7557 25.4629 22.8445 25.2749 23.0081 25.2215L30.3925 22.8099C30.5562 22.7565 30.7388 22.8558 30.7962 23.0315L31.4219 24.9474Z" fill="#28C667"/>
</svg>
