<svg width="34" height="48" viewBox="0 0 34 48" fill="none" xmlns="http://www.w3.org/2000/svg">
<path id="dektop-pc-icon" d="M18.4108 0.373535L0.30899 7.12974V41.145L18.5396 47.2238L33.6762 45.2054L33.6722 44.038V2.68286L18.4108 0.373535ZM16.9623 2.30806L16.9233 45.1526L1.32994 40.2197L1.27918 8.11164L16.9623 2.30806ZM19.5957 2.5306L32.0891 4.22697V43.6378L19.5879 45.1917L19.5957 2.5306ZM20.2399 3.24507L20.2535 44.5104L31.4742 43.0912V4.7228L20.2399 3.24507ZM16.039 3.75847L9.67514 6.05413V15.6662L16.0761 14.8425L16.039 3.75847ZM8.99191 6.39965L1.89214 8.71679V16.5701L9.03681 15.7736L8.99191 6.39965ZM13.1108 6.42893C13.4859 6.43698 13.8431 6.59106 14.1064 6.8584C15.143 7.83835 15.2445 9.61085 14.9653 10.9109C14.7155 12.0744 13.917 13.7942 12.4705 13.6654C12.2129 13.6419 11.6995 13.5111 11.555 13.2613L11.5511 13.2574L11.7034 12.8572C12.2597 13.0953 12.7692 13.2691 13.3412 12.9353C13.8936 12.6112 14.2606 11.9534 14.4695 11.3677C14.8814 10.2199 14.8814 8.66994 14.1357 7.65875C13.228 6.42893 11.9376 7.07313 11.3208 8.22096C11.0611 8.80057 10.8964 9.41816 10.8327 10.0501C10.8141 10.3374 10.8252 10.6259 10.8659 10.9109C10.905 11.2389 11.0748 11.5766 11.0338 11.9085C11.0221 12.01 10.9616 12.0744 10.8484 12.0939C10.1749 10.9617 10.5419 9.15016 11.0475 8.0316C11.4086 7.23125 12.248 6.42308 13.1108 6.43089V6.42893ZM6.11452 8.38689L5.3454 10.5303L6.12038 10.1145L3.87352 15.2973L3.86961 15.2934L4.84956 11.5688L4.21708 11.8714L5.08772 8.68165L6.11452 8.38689ZM12.7829 8.77926C12.8535 8.77749 12.9237 8.78942 12.9898 8.81439C13.8175 9.13063 13.5637 10.54 13.2045 11.0925C13.0152 11.3873 12.6931 11.399 12.3768 11.399V11.4048C12.248 10.9363 12.8414 10.6162 12.9742 10.257C13.0523 10.0462 12.9703 9.86853 12.8863 9.69088C12.6872 9.58742 12.5233 9.64794 12.451 9.85291C12.3424 10.1809 12.1699 10.4841 11.9435 10.745C11.8725 10.4662 11.8594 10.1758 11.9051 9.89177C11.9507 9.60772 12.0542 9.33605 12.209 9.09354C12.274 9.0007 12.3597 8.92418 12.4592 8.86999C12.5588 8.8158 12.6696 8.78541 12.7829 8.78121V8.77926ZM12.5135 9.06817C12.4354 9.06817 12.371 9.16968 12.371 9.29071C12.371 9.41369 12.4354 9.51324 12.5135 9.51324C12.5916 9.51324 12.654 9.41174 12.654 9.29071C12.654 9.16577 12.5896 9.06817 12.5135 9.06817ZM13.064 9.06817C12.9859 9.06817 12.9234 9.16968 12.9234 9.29071C12.9234 9.41369 12.9879 9.51324 13.064 9.51324C13.1421 9.51324 13.2065 9.41174 13.2065 9.29071C13.2065 9.16577 13.1421 9.06817 13.064 9.06817ZM12.166 9.58352C12.0879 9.58352 12.0255 9.68698 12.0255 9.80801C12.0255 9.93099 12.0899 10.0306 12.168 10.0306C12.2461 10.0306 12.3085 9.92709 12.3085 9.80801C12.3085 9.68308 12.2441 9.58352 12.168 9.58352H12.166ZM13.2846 9.70065C13.2065 9.70065 13.144 9.80411 13.144 9.92514C13.144 10.0481 13.2084 10.1477 13.2846 10.1477C13.3627 10.1477 13.4271 10.0442 13.4271 9.92514C13.4271 9.8002 13.3627 9.70065 13.2846 9.70065ZM12.5115 10.3624H12.5154C12.535 10.3897 12.535 10.4171 12.5233 10.4424C12.1426 11.3014 11.7678 12.1622 11.3852 13.027C11.35 13.0114 11.3286 13.0114 11.3169 12.9997C11.1899 12.8375 11.0843 12.6597 11.0026 12.4707C10.9655 12.3965 11.0065 12.3243 11.0514 12.2637L12.3729 10.4991C12.4079 10.444 12.4545 10.3973 12.5096 10.3624H12.5115ZM13.1069 10.3917C13.0288 10.3917 12.9664 10.4951 12.9664 10.6142C12.9664 10.7392 13.0308 10.8387 13.1069 10.8387C13.187 10.8387 13.2494 10.7353 13.2494 10.6142C13.2494 10.4912 13.185 10.3917 13.1069 10.3917ZM12.7556 10.827C12.6775 10.827 12.613 10.9285 12.613 11.0495C12.613 11.1745 12.6775 11.2721 12.7556 11.2721C12.8336 11.2721 12.8961 11.1706 12.8961 11.0495C12.8961 10.9246 12.8317 10.827 12.7556 10.827ZM21.1203 11.4029L30.8651 11.7074L30.869 12.4902L21.1203 12.3731V11.4029ZM15.9667 15.8927L9.67124 16.6735L9.65953 30.2289L15.9179 30.4241L15.9667 15.8927ZM9.01534 16.7399L1.93313 17.4017L1.98194 29.7799L8.99777 30.184L9.01534 16.7399ZM26.4593 17.794C27.1035 17.8018 27.7242 18.3543 28.0834 19.3206L30.7519 19.3362L30.8163 21.8329L28.0717 21.95C27.6286 23.9802 25.4168 23.7909 24.9132 22.0633L21.1886 22.1882L21.1808 19.4455L24.7844 19.3128C25.2314 18.2547 25.8541 17.7843 26.4593 17.794ZM26.4944 18.5944C26.1635 18.5944 25.846 18.8143 25.6118 19.2059C25.3776 19.5975 25.2457 20.1288 25.2451 20.6831C25.2449 20.9581 25.2771 21.2304 25.3398 21.4846C25.4025 21.7387 25.4945 21.9696 25.6106 22.1641C25.7266 22.3586 25.8644 22.513 26.016 22.6183C26.1677 22.7235 26.3302 22.7777 26.4944 22.7777C26.8257 22.7777 27.1435 22.5573 27.3778 22.1648C27.6121 21.7724 27.7437 21.2401 27.7437 20.6851C27.7437 20.1301 27.6121 19.5978 27.3778 19.2054C27.1435 18.8129 26.8257 18.5924 26.4944 18.5924V18.5944ZM4.32055 19.2425L5.03892 19.8652L8.19546 19.752L8.21498 20.0019L4.95498 20.1229L4.15462 19.4338L4.32055 19.2425ZM3.84033 19.6622C3.9299 19.6583 4.01734 19.6902 4.08342 19.7507C4.1495 19.8113 4.1888 19.8957 4.19268 19.9853C4.19657 20.0748 4.16471 20.1623 4.10412 20.2283C4.04354 20.2944 3.95918 20.3337 3.86961 20.3376C3.80304 20.3398 3.73732 20.3222 3.6807 20.2872C3.62408 20.2521 3.5791 20.201 3.55142 20.1405L2.63979 20.1795L2.62808 19.9296L3.53971 19.8906C3.56182 19.8272 3.60213 19.7717 3.6556 19.7311C3.70907 19.6905 3.77332 19.6665 3.84033 19.6622ZM13.5715 20.1795C13.6769 20.3903 13.5676 20.7788 13.7882 20.8295C14.0869 20.8998 14.1279 20.9759 14.2001 21.2551C14.2333 21.38 14.1845 21.4405 14.3133 21.5128C14.4539 21.5928 14.6198 21.5694 14.6237 21.7587C14.6276 22.0184 14.5144 21.9813 14.3172 21.9813C14.245 21.9813 14.2196 22.1179 14.2157 22.1706C14.2001 22.3619 14.2333 22.401 14.4187 22.4537C14.6569 22.522 14.6139 22.5864 14.6139 22.8051C14.6139 22.9144 14.6354 22.8539 14.491 22.8831C14.2606 22.9261 14.2079 22.8949 14.2196 23.1564C14.2372 23.4707 14.7604 23.215 14.61 23.664C14.5476 23.8592 14.2294 23.7089 14.2294 23.8787C14.2294 24.0934 14.1845 24.191 14.4461 24.2106C14.7037 24.2301 14.6881 24.5776 14.4617 24.6556C14.325 24.7044 14.2762 24.6517 14.2274 24.8157C14.1806 24.9816 14.1845 25.1554 14.124 25.3233C13.878 25.5029 13.6555 25.253 13.6555 25.661C13.6555 25.7703 13.632 25.8503 13.6125 25.9538C13.5754 26.1568 13.5227 25.9831 13.3783 26.028C13.3392 25.9792 13.3783 25.7098 13.3783 25.6454C13.3783 25.4541 13.3138 25.4111 13.0952 25.4267C13.0835 25.661 13.0874 25.9108 12.9 26.0807C12.7829 26.0026 12.738 25.8855 12.7282 25.7527C12.7165 25.4911 12.736 25.4833 12.4666 25.4189C12.413 25.6092 12.3932 25.8074 12.4081 26.0045C12.1973 26.11 12.1641 25.7859 12.1641 25.6571C12.1641 25.5478 12.209 25.4267 12.0723 25.3857C11.9357 25.3506 11.8869 25.4189 11.883 25.5419C11.8752 25.7898 11.8634 25.8991 11.6682 26.0358C11.5901 25.8191 11.6565 25.4423 11.4027 25.3721C11.1197 25.3018 11.0846 25.0949 11.0807 24.8255C11.0748 24.5307 10.7215 24.8118 10.7215 24.4936C10.7215 24.4624 10.6961 24.2965 10.7215 24.2711C10.8386 24.1871 10.9557 24.3199 11.0631 24.275C11.1158 24.1305 11.1353 23.9119 10.9791 23.8748C10.8171 23.8397 10.6649 23.8202 10.7 23.6327C10.7449 23.4024 10.7039 23.4161 10.9538 23.3985C11.1451 23.3868 11.0748 23.1896 11.0807 23.0608C10.8288 22.9437 10.7254 23.092 10.7254 22.7602C10.7254 22.5357 10.7078 22.5552 10.9342 22.5552C11.1295 22.5552 11.0709 22.4869 11.0709 22.3014C11.0709 22.0945 10.7 22.276 10.6844 21.993C10.6766 21.872 10.7234 21.7665 10.8405 21.7236C11.0475 21.6416 11.0709 21.6299 11.0807 21.4074C11.0924 21.0853 11.3051 21.0482 11.5628 20.9193L11.5589 20.9154C11.555 20.7085 11.5589 20.5113 11.6878 20.3415C11.9298 20.3493 11.8869 20.7319 11.8908 20.9193C12.3046 21.1243 12.086 20.4821 12.3007 20.3005C12.6072 20.2693 12.2773 20.9467 12.5799 20.9389C12.777 20.935 12.736 20.8413 12.7321 20.6695C12.7282 20.5113 12.7497 20.3532 12.8863 20.2537C13.2182 20.3786 12.9176 20.9877 13.3373 20.8901C13.3373 20.6324 13.2982 20.3181 13.5715 20.1795ZM7.74062 20.4333C7.78504 20.4317 7.82932 20.439 7.87091 20.4547C7.9125 20.4703 7.95055 20.4941 7.98288 20.5246C8.0152 20.5551 8.04114 20.5918 8.05921 20.6324C8.07727 20.673 8.08708 20.7168 8.08809 20.7612C8.08965 20.8056 8.08238 20.8499 8.06669 20.8915C8.05101 20.9331 8.02722 20.9712 7.99672 21.0035C7.96621 21.0358 7.92959 21.0617 7.88898 21.0798C7.84837 21.0979 7.80457 21.1077 7.76014 21.1087C7.69536 21.1106 7.63139 21.0938 7.57597 21.0602C7.52055 21.0266 7.47603 20.9777 7.4478 20.9193L6.42686 20.9486C6.39722 21.0202 6.34359 21.0793 6.27515 21.1157C6.20672 21.1521 6.12775 21.1636 6.0518 21.1481C5.97585 21.1326 5.90765 21.0912 5.85889 21.0309C5.81014 20.9707 5.78388 20.8953 5.78462 20.8178C5.78305 20.7736 5.79026 20.7294 5.80583 20.688C5.82139 20.6465 5.845 20.6085 5.8753 20.5762C5.90561 20.544 5.942 20.518 5.98238 20.4998C6.02277 20.4816 6.06635 20.4716 6.11062 20.4704V20.4665C6.1821 20.4651 6.2522 20.4863 6.31104 20.5269C6.36987 20.5675 6.41448 20.6256 6.43857 20.6929L7.43023 20.6656C7.45242 20.6002 7.49401 20.5431 7.54947 20.5019C7.60492 20.4608 7.6716 20.4375 7.74062 20.4352V20.4333ZM5.38639 20.9271L8.26573 25.1241L8.051 25.2569L5.22437 21.1731L2.6437 21.3312L2.63589 21.0892L5.38639 20.9271ZM8.31648 21.2336L8.30087 21.5967L8.03538 21.9813C8.06607 22.0411 8.07819 22.1088 8.07019 22.1755C8.06219 22.2423 8.03444 22.3052 7.99049 22.3561V22.3522C7.93171 22.4197 7.84852 22.4612 7.7592 22.4674C7.66988 22.4736 7.58175 22.4441 7.51417 22.3854C7.48099 22.3565 7.45385 22.3213 7.43431 22.2819C7.41477 22.2425 7.40322 22.1996 7.40032 22.1557C7.39742 22.1117 7.40322 22.0677 7.4174 22.0261C7.43158 21.9844 7.45385 21.946 7.48294 21.913C7.52681 21.8623 7.58484 21.826 7.64954 21.8086C7.71425 21.7912 7.78268 21.7935 7.84603 21.8153L8.31648 21.2336ZM6.95587 21.8466C7.01093 21.8448 7.06554 21.8569 7.11467 21.8819C7.16379 21.9068 7.20586 21.9436 7.23698 21.9891C7.31701 22.1062 7.31701 22.2526 7.24478 22.3658L8.27354 23.9002L8.27744 24.2965L7.03981 22.5064C6.9747 22.5226 6.90617 22.5186 6.84339 22.4949C6.78061 22.4712 6.72655 22.4289 6.68844 22.3736L6.68453 22.3776C6.63384 22.3042 6.61422 22.2138 6.62994 22.126C6.64567 22.0382 6.69547 21.9602 6.76847 21.909C6.82321 21.8698 6.88854 21.848 6.95587 21.8466ZM5.28488 21.9852C5.32923 21.9834 5.3735 21.9903 5.41516 22.0057C5.45682 22.021 5.49505 22.0443 5.52768 22.0744C5.56031 22.1045 5.58669 22.1407 5.60532 22.181C5.62395 22.2213 5.63446 22.2649 5.63626 22.3092C5.63805 22.3536 5.63109 22.3978 5.61578 22.4395C5.60047 22.4812 5.5771 22.5194 5.54701 22.552C5.51692 22.5847 5.48069 22.611 5.44041 22.6297C5.40012 22.6483 5.35656 22.6588 5.31221 22.6606C5.24542 22.6626 5.17954 22.6448 5.1229 22.6093C5.06626 22.5739 5.02141 22.5224 4.99402 22.4615L2.68859 22.5786L2.67688 22.3287L4.98231 22.2116C5.00486 22.1483 5.04561 22.093 5.09943 22.0527C5.15325 22.0125 5.21776 21.989 5.28488 21.9852ZM5.98959 23.3185L6.75676 24.275C6.80721 24.246 6.86453 24.2312 6.92269 24.232C7.10814 24.232 7.2604 24.3843 7.2604 24.5698C7.2599 24.6593 7.22421 24.7452 7.16104 24.8087C7.09788 24.8722 7.01228 24.9084 6.92269 24.9094C6.83276 24.9089 6.74667 24.873 6.68308 24.8094C6.61949 24.7458 6.58354 24.6597 6.58302 24.5698C6.58302 24.5385 6.59083 24.5053 6.59864 24.4722L5.89394 23.5742L2.71983 23.6523L2.71202 23.3985L5.98959 23.3185ZM3.8091 24.1696H3.813C3.92818 24.1715 4.02773 24.232 4.08239 24.3199L6.01887 24.3726L6.78019 25.2979C6.83045 25.2683 6.88777 25.2527 6.94611 25.253C7.13156 25.253 7.28578 25.4072 7.28578 25.5927C7.28527 25.6826 7.24932 25.7687 7.18573 25.8323C7.12214 25.8959 7.03604 25.9318 6.94611 25.9323C6.85619 25.9318 6.77009 25.8959 6.7065 25.8323C6.64291 25.7687 6.60696 25.6826 6.60645 25.5927C6.60833 25.5595 6.61423 25.5268 6.62402 25.495L5.92126 24.6264L4.12729 24.5737C4.1099 24.6428 4.06992 24.7042 4.01369 24.748C3.95747 24.7919 3.88821 24.8157 3.81691 24.8157C3.73753 24.8075 3.66399 24.7702 3.61038 24.7111C3.55677 24.652 3.52686 24.5752 3.52637 24.4954C3.52589 24.4156 3.55487 24.3384 3.60776 24.2786C3.66065 24.2189 3.73373 24.1807 3.813 24.1715H3.8091V24.1696ZM2.93651 24.5698C3.05364 24.5698 3.13953 24.5971 3.22932 24.7357C3.49481 25.1515 3.74468 25.579 3.99845 26.0045C4.12338 26.2134 4.25222 26.4242 4.38106 26.6292C4.56651 26.9279 4.61531 26.9533 4.97059 26.9767C5.22437 26.9943 5.48204 26.9943 5.73972 26.9943C6.00716 26.9943 5.99935 26.7717 6.25312 26.7951C6.4698 27.0021 6.4698 27.2676 6.25312 27.4745C6.01106 27.4901 6.03839 27.2402 5.85685 27.2402H5.08577C4.7012 27.2402 4.58603 27.3242 4.38692 27.0138L3.03216 24.8489H2.69835V24.5795C2.79206 24.5795 2.87014 24.5717 2.93846 24.5717L2.93651 24.5698ZM5.86465 25.2335C5.90891 25.2319 5.95304 25.2391 5.9945 25.2547C6.03596 25.2702 6.07394 25.2939 6.10623 25.3242C6.13853 25.3545 6.16451 25.3908 6.18269 25.4312C6.20086 25.4716 6.21087 25.5152 6.21213 25.5595C6.21369 25.6037 6.20648 25.6479 6.19092 25.6893C6.17535 25.7308 6.15174 25.7687 6.12144 25.801C6.09114 25.8333 6.05475 25.8593 6.01436 25.8775C5.97398 25.8957 5.93039 25.9057 5.88613 25.9069C5.82102 25.9093 5.75663 25.8926 5.70083 25.859C5.64502 25.8254 5.60021 25.7762 5.57184 25.7176L4.67583 25.7371C4.64415 25.8056 4.59031 25.8614 4.523 25.8956C4.45569 25.9297 4.37884 25.9402 4.30485 25.9253C4.23086 25.9104 4.16404 25.8711 4.11518 25.8135C4.06632 25.756 4.03826 25.6837 4.03554 25.6083C4.03398 25.564 4.04119 25.5199 4.05675 25.4784C4.07231 25.437 4.09593 25.399 4.12623 25.3667C4.15653 25.3344 4.19292 25.3084 4.2333 25.2902C4.27369 25.2721 4.31727 25.2621 4.36154 25.2608V25.2569C4.43269 25.256 4.50236 25.2773 4.5608 25.3179C4.61925 25.3585 4.66355 25.4163 4.68754 25.4833L5.55427 25.4638C5.57657 25.3981 5.61846 25.3408 5.6743 25.2996C5.73014 25.2585 5.79725 25.2354 5.86661 25.2335H5.86465ZM7.74843 25.5868C7.79463 25.586 7.8405 25.5948 7.88312 25.6127C7.92575 25.6305 7.9642 25.6571 7.99604 25.6906C8.02788 25.724 8.05242 25.7638 8.06811 25.8073C8.08379 25.8507 8.09028 25.897 8.08716 25.9431C8.08404 25.9892 8.07139 26.0342 8.04999 26.0751C8.02859 26.1161 7.99892 26.1521 7.96286 26.181C7.92679 26.2099 7.88512 26.231 7.84048 26.243C7.79584 26.255 7.74921 26.2575 7.70353 26.2505L6.69625 27.7341L6.43076 27.7361L7.49075 26.1217C7.45449 26.0725 7.43232 26.0144 7.42663 25.9536C7.42094 25.8928 7.43193 25.8316 7.45844 25.7766C7.48494 25.7216 7.52595 25.6748 7.57705 25.6414C7.62815 25.6079 7.6874 25.5891 7.74843 25.5868ZM2.99117 25.6122C3.07252 25.6185 3.14848 25.6553 3.20389 25.7152C3.25931 25.7751 3.29008 25.8537 3.29008 25.9352C3.29008 26.0168 3.25931 26.0954 3.20389 26.1553C3.14848 26.2152 3.07252 26.252 2.99117 26.2583C2.90982 26.252 2.83386 26.2152 2.77845 26.1553C2.72303 26.0954 2.69225 26.0168 2.69225 25.9352C2.69225 25.8537 2.72303 25.7751 2.77845 25.7152C2.83386 25.6553 2.90982 25.6185 2.99117 25.6122ZM3.70173 26.7112C3.78958 26.7112 3.87547 26.7444 3.94184 26.8108C3.97377 26.8419 3.99915 26.879 4.01649 26.9201C4.03382 26.9612 4.04274 27.0053 4.04274 27.0499C4.04274 27.0945 4.03382 27.1386 4.01649 27.1797C3.99915 27.2207 3.97377 27.2579 3.94184 27.289C3.91091 27.3209 3.87389 27.3462 3.83298 27.3636C3.79207 27.3809 3.7481 27.3898 3.70368 27.3898C3.65927 27.3898 3.6153 27.3809 3.57439 27.3636C3.53348 27.3462 3.49646 27.3209 3.46553 27.289C3.44251 27.2644 3.42283 27.2368 3.40697 27.207L3.12001 27.1953L2.80182 27.6404L2.61637 27.4647L3.00679 26.9455L3.38159 26.9572C3.39733 26.9023 3.42613 26.8521 3.46553 26.8108C3.49636 26.7795 3.53316 26.7548 3.57373 26.738C3.61431 26.7212 3.65783 26.7128 3.70173 26.7132V26.7112ZM7.9124 26.9767C8.02953 26.9786 8.16422 27.0021 8.24426 27.0021C8.25597 27.1153 8.26378 27.2168 8.18569 27.3164C8.0471 27.3203 7.9124 27.2597 7.77575 27.248L7.53565 27.5799C7.5825 27.6833 7.73671 27.5857 7.76404 27.7243C7.725 27.8903 7.40486 27.7439 7.29554 27.7614C7.24088 27.5857 7.6352 27.1426 7.73671 27.0001C7.79277 26.9792 7.85282 26.9712 7.9124 26.9767ZM24.4506 27.5955V42.7086L21.6161 43.0483L21.6083 27.7478L24.4506 27.5955ZM2.03464 30.754L2.02683 34.9022L5.32978 35.3531L5.3493 30.9921L2.03464 30.754ZM5.83732 31.0039V40.4989L11.5511 42.2206V31.3787L5.83732 31.0039ZM12.3046 31.4411L12.33 42.6559L12.7204 42.7769C13.0132 41.7716 13.5403 42.1601 13.5754 43.0502L14.3289 43.2747C14.3367 42.2147 15.2523 42.5954 15.1 43.5031L15.7969 43.7628L15.7735 31.6832L15.2601 31.65C15.3733 32.7646 14.2606 32.7529 14.4383 31.5973L13.6184 31.5446C13.7492 32.6163 12.6267 32.587 12.8004 31.4763L12.3046 31.4411ZM3.29765 31.8999L3.83643 33.0848L4.16828 32.4796L4.94131 34.2307L2.41921 33.8403V33.8442V33.8383L3.29765 31.8999ZM4.68364 31.9252C4.86128 31.9252 5.00183 32.0658 5.00183 32.2434C5.00235 32.2855 4.99449 32.3272 4.9787 32.3661C4.96292 32.4051 4.93954 32.4405 4.90991 32.4703C4.88029 32.5001 4.84502 32.5237 4.80617 32.5397C4.76731 32.5557 4.72566 32.5638 4.68364 32.5636C4.64161 32.5638 4.59996 32.5557 4.56111 32.5397C4.52225 32.5237 4.48699 32.5001 4.45736 32.4703C4.42774 32.4405 4.40435 32.4051 4.38857 32.3661C4.37279 32.3272 4.36492 32.2855 4.36544 32.2434C4.36544 32.0678 4.50599 31.9252 4.68364 31.9252ZM12.6931 32.8974L15.4299 33.1844V35.8821L12.6931 35.482V32.8974ZM8.32039 32.9345C8.66786 32.9579 8.99777 33.0282 9.2652 33.282C9.86645 33.8559 8.8006 34.9666 9.28082 35.6401C9.71223 35.2243 9.70442 34.707 10.0304 34.2678C10.3545 34.6836 10.6356 35.5191 10.5829 36.0481C10.3057 36.3838 10.0831 36.5751 9.41747 36.622C9.43699 36.7704 9.34524 36.9128 9.38623 37.0866C9.74151 37.4653 10.1319 37.4048 10.6004 37.3774C10.6649 37.7093 10.3291 38.7342 10.0792 38.9801C9.57168 38.7498 9.3101 38.2578 9.02705 37.805C8.92985 37.8742 8.84307 37.9571 8.76937 38.0509C8.8377 38.5721 9.49555 39.2339 9.40966 39.6946C9.19106 39.8101 8.94296 39.8576 8.69714 39.8312C8.44728 39.7961 8.34577 39.6595 8.2872 39.392C8.15251 38.8005 8.41409 38.0704 7.91631 37.6468C7.67229 38.1271 7.74062 38.658 7.6762 39.1792C7.28578 39.0816 7.00273 38.3008 6.92659 37.967C6.99492 37.5668 7.20379 37.272 7.44585 36.9617C7.55907 36.8152 7.59616 36.6688 7.52393 36.501C7.49465 36.4365 7.49856 36.3546 7.44195 36.3018C7.09057 36.3624 6.8817 36.6337 6.64159 36.868C6.36829 36.5849 6.43076 35.521 6.64744 35.2087C6.80734 35.1827 6.97088 35.1901 7.12778 35.2304C7.28468 35.2707 7.43152 35.3431 7.55907 35.4429C7.7738 35.2321 7.78551 35.0271 7.59616 34.8085C7.44975 34.6426 7.00273 34.4493 6.92269 34.2795C6.85827 34.0257 7.33263 33.1668 7.61959 33.1804C7.93387 33.645 8.11932 34.1702 8.22474 34.7187C8.33405 34.7636 8.42971 34.8046 8.55659 34.7792C8.61906 34.1545 8.47851 33.5572 8.28135 32.9716C8.30087 32.952 8.31258 32.9345 8.32039 32.9345ZM2.01512 35.482V39.6204L5.3493 40.4344L5.38639 35.9758L2.01512 35.482ZM12.697 35.9602L15.4299 36.3995V39.1226L12.697 38.537V35.9602ZM3.71735 36.5459L3.74468 39.2749L3.08682 38.4316L2.49924 38.3027V37.1354L3.05168 37.2154L3.71735 36.5459ZM4.49428 36.7313C4.50283 36.7319 4.51132 36.7332 4.51966 36.7352C4.59189 36.9011 4.67583 37.071 4.72463 37.2525C4.9257 38.0197 4.9257 38.7615 4.49428 39.4857L4.49038 39.4818C4.41229 39.3315 4.43377 39.2183 4.48647 39.0855C4.61141 38.7576 4.72463 38.4218 4.7012 38.0685C4.68571 37.7587 4.6225 37.4532 4.5138 37.1627C4.46667 37.0428 4.42241 36.9217 4.38106 36.7996C4.41034 36.7567 4.43962 36.7274 4.49428 36.7313ZM4.21513 37.0144C4.25417 37.0163 4.26979 37.0417 4.2815 37.0671C4.36544 37.2389 4.42596 37.4126 4.46305 37.6039C4.50209 37.8245 4.48257 38.0431 4.49819 38.2617C4.5099 38.4023 4.46695 38.5409 4.44548 38.6736C4.43463 38.7536 4.40536 38.83 4.35996 38.8967C4.31457 38.9635 4.2543 39.0187 4.1839 39.0582V39.0621H4.18L4.1839 39.0582C4.17219 38.9274 4.22099 38.8103 4.24832 38.6932C4.28736 38.5175 4.34983 38.3379 4.37325 38.1602C4.40644 37.9338 4.33421 37.7171 4.27565 37.4965L4.1878 37.1959C4.17219 37.1315 4.16047 37.071 4.19561 37.0144H4.21513ZM3.97502 37.3306C3.9965 37.3306 4.01602 37.3345 4.03944 37.3404C4.14962 37.6018 4.19901 37.8848 4.1839 38.168C4.18 38.2774 4.139 38.375 4.11558 38.4765C4.09606 38.5526 4.04335 38.5975 3.97893 38.6326C3.92622 38.5799 3.94184 38.5331 3.95355 38.4804C3.98674 38.3301 4.01797 38.1856 4.02188 38.0314C4.03164 37.7972 3.95746 37.5785 3.90475 37.3482H3.90085C3.92418 37.3375 3.94938 37.3315 3.97502 37.3306ZM12.697 38.9606L15.4221 39.5814V42.2811L12.697 41.5296V38.9606Z" fill="url(#paint0_linear)"/>
<defs>
<linearGradient id="paint0_linear" x1="16.9926" y1="0.373535" x2="16.9926" y2="47.2238" gradientUnits="userSpaceOnUse">
<stop stop-color="#00A3FF"/>
<stop offset="0.697925" stop-color="#FF0000"/>
<stop offset="1"/>
</linearGradient>
</defs>
</svg>
