<svg width="25" height="28" viewBox="0 0 25 28" fill="none" xmlns="http://www.w3.org/2000/svg">
<path d="M9.61221 11.6211C8.82201 11.6211 8.19947 12.3137 8.19947 13.1593C8.19947 14.0019 8.83659 14.6974 9.61221 14.6974C10.401 14.6974 11.0235 14.0019 11.0235 13.1593C11.0395 12.3122 10.401 11.6211 9.61221 11.6211ZM14.6683 11.6211C13.8781 11.6211 13.2556 12.3137 13.2556 13.1593C13.2556 14.0019 13.8927 14.6974 14.6683 14.6974C15.4571 14.6974 16.0796 14.0019 16.0796 13.1593C16.0782 12.3122 15.4571 11.6211 14.6683 11.6211Z" fill="#37474F"/>
<path d="M21.3996 0H2.83861C2.46488 0.000956069 2.095 0.0755143 1.75009 0.219418C1.40518 0.363321 1.09198 0.573751 0.828394 0.838694C0.564806 1.10364 0.355982 1.4179 0.213848 1.76355C0.0717132 2.1092 -0.000949161 2.47945 9.36089e-06 2.85318V21.5789C9.36089e-06 23.1579 1.27425 24.4321 2.83861 24.4321H18.545L17.8087 21.8676L19.583 23.5165L21.2582 25.0678L24.2382 27.7008V2.85318C24.2392 2.47945 24.1665 2.1092 24.0244 1.76355C23.8822 1.4179 23.6734 1.10364 23.4098 0.838694C23.1462 0.573751 22.833 0.363321 22.4881 0.219418C22.1432 0.0755143 21.7733 0.000956069 21.3996 0ZM16.0519 18.0886C16.0519 18.0886 15.5533 17.4938 15.1392 16.9645C16.9529 16.4514 17.6454 15.3171 17.6454 15.3171C17.0768 15.6903 16.5374 15.9557 16.0519 16.1364C14.2844 16.8762 12.338 17.078 10.4563 16.7167C9.76105 16.5801 9.07976 16.38 8.42105 16.1189C8.07365 15.987 7.73602 15.8306 7.4107 15.6509C7.36842 15.6203 7.3276 15.6087 7.28678 15.581C7.26494 15.5706 7.24556 15.5557 7.22992 15.5372C6.98061 15.4002 6.8421 15.304 6.8421 15.304C6.8421 15.304 7.50692 16.412 9.26665 16.9383C8.85114 17.4632 8.33795 18.0886 8.33795 18.0886C5.27774 17.9909 4.11576 15.9834 4.11576 15.9834C4.11576 11.5235 6.11022 7.9093 6.11022 7.9093C8.10468 6.412 10.0015 6.45428 10.0015 6.45428L10.14 6.62049C7.64689 7.34217 6.49657 8.43562 6.49657 8.43562C6.49657 8.43562 6.80274 8.26941 7.31448 8.03469C8.79574 7.38445 9.9723 7.20366 10.4578 7.16138C10.5409 7.14826 10.6109 7.13368 10.694 7.13368C13.0955 6.81005 15.5375 7.26645 17.66 8.43562C17.66 8.43562 16.5651 7.39757 14.2105 6.67735L14.4044 6.45574C14.4044 6.45574 16.3027 6.41346 18.2957 7.91076C18.2957 7.91076 20.2901 11.525 20.2901 15.9848C20.2901 15.9834 19.1136 17.9909 16.0519 18.0886Z" fill="#37474F"/>
</svg>
