<svg width="21" height="24" viewBox="0 0 21 24" fill="none" xmlns="http://www.w3.org/2000/svg">
<g id="discord-icon">
<path d="M8.02592 9.70331C7.36612 9.70331 6.84632 10.2815 6.84632 10.9876C6.84632 11.6912 7.3783 12.2719 8.02592 12.2719C8.6845 12.2719 9.2043 11.6912 9.2043 10.9876C9.21769 10.2803 8.6845 9.70331 8.02592 9.70331ZM12.2476 9.70331C11.5878 9.70331 11.068 10.2815 11.068 10.9876C11.068 11.6912 11.6 12.2719 12.2476 12.2719C12.9062 12.2719 13.426 11.6912 13.426 10.9876C13.4248 10.2803 12.9062 9.70331 12.2476 9.70331Z" fill="black"/>
<path d="M17.868 0H2.37016C2.05811 0.00079829 1.74927 0.0630523 1.46127 0.183208C1.17328 0.303363 0.911775 0.479066 0.691685 0.700285C0.471596 0.921505 0.297235 1.18391 0.178557 1.47251C0.0598785 1.76112 -0.000792522 2.07027 7.81607e-06 2.38232V18.0178C7.81607e-06 19.3361 1.06396 20.4001 2.37016 20.4001H15.4845L14.8698 18.2588L16.3512 19.6356L17.75 20.9309L20.2382 23.1294V2.38232C20.239 2.07027 20.1783 1.76112 20.0597 1.47251C19.941 1.18391 19.7666 0.921505 19.5465 0.700285C19.3264 0.479066 19.0649 0.303363 18.7769 0.183208C18.4889 0.0630523 18.1801 0.00079829 17.868 0ZM13.4029 15.1035C13.4029 15.1035 12.9865 14.6068 12.6408 14.1649C14.1552 13.7364 14.7334 12.7893 14.7334 12.7893C14.2587 13.101 13.8082 13.3225 13.4029 13.4735C11.9271 14.0911 10.3019 14.2596 8.73073 13.958C8.15019 13.8439 7.58134 13.6769 7.03133 13.4589C6.74126 13.3487 6.45935 13.2181 6.18772 13.0681C6.15242 13.0425 6.11833 13.0328 6.08425 13.0097C6.06601 13.001 6.04983 12.9885 6.03677 12.9731C5.82861 12.8587 5.71296 12.7784 5.71296 12.7784C5.71296 12.7784 6.26806 13.7035 7.73739 14.143C7.39045 14.5812 6.96195 15.1035 6.96195 15.1035C4.40676 15.0219 3.43654 13.3456 3.43654 13.3456C3.43654 9.62181 5.10186 6.60404 5.10186 6.60404C6.76717 5.35384 8.35092 5.38914 8.35092 5.38914L8.46657 5.52792C6.38493 6.1305 5.42445 7.0435 5.42445 7.0435C5.42445 7.0435 5.68009 6.90472 6.10738 6.70873C7.34419 6.1658 8.32658 6.01485 8.73195 5.97955C8.80134 5.96859 8.85977 5.95642 8.92916 5.95642C10.9344 5.68619 12.9733 6.06727 14.7456 7.0435C14.7456 7.0435 13.8314 6.17676 11.8654 5.57539L12.0273 5.39036C12.0273 5.39036 13.6122 5.35506 15.2763 6.60526C15.2763 6.60526 16.9417 9.62303 16.9417 13.3469C16.9417 13.3456 15.9593 15.0219 13.4029 15.1035Z" fill="black"/>
</g>
</svg>
