<svg width="21" height="28" viewBox="0 0 21 28" fill="none" xmlns="http://www.w3.org/2000/svg">
<path id="git-branch" d="M20.3056 7.61458C20.3056 5.27733 18.4125 3.38426 16.0752 3.38426C13.738 3.38426 11.8449 5.27733 11.8449 7.61458C11.8449 9.53938 13.1299 11.1628 14.8855 11.6757C14.8537 12.527 14.6634 13.1827 14.3038 13.6269C13.4894 14.6422 11.6968 14.8114 9.79849 14.9859C8.3073 15.1234 6.76323 15.2715 5.49942 15.8796V8.265C7.21799 7.72563 8.46065 6.12339 8.46065 4.23032C8.46065 1.89307 6.56758 0 4.23032 0C1.89307 0 0 1.89307 0 4.23032C0 6.12339 1.24266 7.72563 2.96123 8.265V18.8038C1.24266 19.3484 0 20.9507 0 22.8438C0 25.181 1.89307 27.0741 4.23032 27.0741C6.56758 27.0741 8.46065 25.181 8.46065 22.8438C8.46065 21.0459 7.33961 19.5071 5.75324 18.899C5.91717 18.624 6.1657 18.3808 6.54114 18.1904C7.39778 17.7568 8.67745 17.6405 10.0364 17.5135C12.2679 17.3073 14.7956 17.0694 16.2867 15.2186C17.0271 14.2985 17.4025 13.114 17.4289 11.6281C19.0999 11.057 20.3056 9.47593 20.3056 7.61458ZM4.23032 3.38426C4.69566 3.38426 5.07639 3.76499 5.07639 4.23032C5.07639 4.69566 4.69566 5.07639 4.23032 5.07639C3.76499 5.07639 3.38426 4.69566 3.38426 4.23032C3.38426 3.76499 3.76499 3.38426 4.23032 3.38426ZM4.23032 23.6898C3.76499 23.6898 3.38426 23.3091 3.38426 22.8438C3.38426 22.3784 3.76499 21.9977 4.23032 21.9977C4.69566 21.9977 5.07639 22.3784 5.07639 22.8438C5.07639 23.3091 4.69566 23.6898 4.23032 23.6898ZM16.0752 6.76852C16.5406 6.76852 16.9213 7.14925 16.9213 7.61458C16.9213 8.07992 16.5406 8.46065 16.0752 8.46065C15.6099 8.46065 15.2292 8.07992 15.2292 7.61458C15.2292 7.14925 15.6099 6.76852 16.0752 6.76852Z" fill="black"/>
</svg>
