<svg width="25" height="25" viewBox="0 0 25 25" fill="none" xmlns="http://www.w3.org/2000/svg">
<path d="M12.4966 8.3314C10.2014 8.3314 8.32828 10.2045 8.32828 12.4998C8.32828 14.795 10.2014 16.6681 12.4966 16.6681C14.7919 16.6681 16.665 14.795 16.665 12.4998C16.665 10.2045 14.7919 8.3314 12.4966 8.3314ZM24.9986 12.4998C24.9986 10.7736 25.0142 9.06313 24.9173 7.34013C24.8204 5.33881 24.3638 3.56264 22.9004 2.09918C21.4338 0.632595 19.6607 0.179172 17.6594 0.0822335C15.9333 -0.0147052 14.2228 0.000930124 12.4998 0.000930124C10.7736 0.000930124 9.06313 -0.0147052 7.34013 0.0822335C5.33881 0.179172 3.56265 0.635722 2.09918 2.09918C0.632595 3.56577 0.179172 5.33881 0.0822335 7.34013C-0.0147052 9.06626 0.000930124 10.7768 0.000930124 12.4998C0.000930124 14.2228 -0.0147052 15.9364 0.0822335 17.6594C0.179172 19.6607 0.635722 21.4369 2.09918 22.9003C3.56577 24.3669 5.33881 24.8204 7.34013 24.9173C9.06626 25.0142 10.7768 24.9986 12.4998 24.9986C14.2259 24.9986 15.9364 25.0142 17.6594 24.9173C19.6607 24.8204 21.4369 24.3638 22.9004 22.9003C24.3669 21.4338 24.8204 19.6607 24.9173 17.6594C25.0174 15.9364 24.9986 14.2259 24.9986 12.4998V12.4998ZM12.4966 18.9134C8.94743 18.9134 6.08305 16.049 6.08305 12.4998C6.08305 8.95056 8.94743 6.08618 12.4966 6.08618C16.0458 6.08618 18.9102 8.95056 18.9102 12.4998C18.9102 16.049 16.0458 18.9134 12.4966 18.9134ZM19.1729 7.32136C18.3442 7.32136 17.675 6.65217 17.675 5.82351C17.675 4.99484 18.3442 4.32565 19.1729 4.32565C20.0016 4.32565 20.6708 4.99484 20.6708 5.82351C20.671 6.02028 20.6324 6.21516 20.5572 6.397C20.4821 6.57884 20.3717 6.74406 20.2326 6.8832C20.0935 7.02234 19.9282 7.13266 19.7464 7.20785C19.5646 7.28304 19.3697 7.32161 19.1729 7.32136V7.32136Z" fill="#37474F"/>
</svg>
