<svg width="90" height="38" viewBox="0 0 90 38" fill="none" xmlns="http://www.w3.org/2000/svg">
<path id="stripe-vector" d="M6.32496 14.6749C6.32496 13.7 7.12494 13.3249 8.45016 13.3249C10.35 13.3249 12.7499 13.9001 14.65 14.9251V9.04992C12.575 8.22498 10.5251 7.89996 8.45016 7.89996C3.375 7.89996 0 10.55 0 14.9752C0 21.8749 9.49992 20.7751 9.49992 23.7502C9.49992 24.8999 8.50008 25.2751 7.09998 25.2751C5.02506 25.2751 2.37498 24.425 0.274922 23.275V29.225C2.59998 30.2251 4.95 30.6499 7.09998 30.6499C12.2999 30.6499 15.875 28.0751 15.875 23.6C15.85 16.1501 6.32496 17.4749 6.32496 14.6749V14.6749ZM23.2249 2.90004L17.125 4.19994L17.1 24.2249C17.1 27.9251 19.8751 30.6499 23.5751 30.6499C25.625 30.6499 27.125 30.275 27.9499 29.825V24.75C27.1501 25.075 23.2 26.225 23.2 22.525V13.6499H27.9499V8.325H23.2L23.2249 2.90004V2.90004ZM35.7251 10.1749L35.325 8.325H29.925V30.1999H36.1751V15.3751C37.6499 13.4501 40.15 13.8001 40.925 14.075V8.325C40.1251 8.02494 37.2001 7.47492 35.7251 10.1749V10.1749ZM42.4499 8.325H48.725V30.1999H42.4499V8.325V8.325ZM42.4499 6.42498L48.725 5.07498V0L42.4499 1.32504V6.4248V6.42498ZM61.775 7.89996C59.3249 7.89996 57.7499 9.04992 56.8751 9.85008L56.5499 8.30004H51.05V37.4498L57.2999 36.125L57.3251 29.05C58.2251 29.7 59.5499 30.625 61.75 30.625C66.2251 30.625 70.3 27.025 70.3 19.1C70.2751 11.8499 66.15 7.89996 61.775 7.89996V7.89996ZM60.275 25.1249C58.8001 25.1249 57.9248 24.6001 57.3251 23.95L57.2999 14.6749C57.95 13.95 58.85 13.4501 60.275 13.4501C62.55 13.4501 64.125 16 64.125 19.2749C64.125 22.625 62.575 25.1249 60.275 25.1249V25.1249ZM90 19.35C90 12.95 86.8999 7.89996 80.975 7.89996C75.0248 7.89996 71.4248 12.9502 71.4248 19.3001C71.4248 26.8249 75.6751 30.625 81.7748 30.625C84.7499 30.625 86.9999 29.95 88.6999 29V23.9999C87.0001 24.85 85.05 25.3751 82.575 25.3751C80.1499 25.3751 77.9999 24.525 77.725 21.575H89.9501C89.9501 21.2498 90 19.9499 90 19.35ZM77.65 16.975C77.65 14.15 79.3751 12.9749 80.9501 12.9749C82.475 12.9749 84.1001 14.15 84.1001 16.975H77.65Z" fill="#6772E5"/>
</svg>
