<svg width="19" height="16" viewBox="0 0 19 16" fill="none" xmlns="http://www.w3.org/2000/svg">
<path id="twitter-icon" d="M18.7949 1.81377C18.1037 2.11192 17.3515 2.3265 16.5768 2.41007C17.3812 1.93221 17.9835 1.17726 18.2708 0.286868C17.516 0.735878 16.6892 1.05073 15.8269 1.21746C15.4665 0.832184 15.0306 0.525253 14.5464 0.315796C14.0622 0.106339 13.5401 -0.00115598 13.0125 9.37463e-06C10.878 9.37463e-06 9.1614 1.73019 9.1614 3.8534C9.1614 4.15155 9.19754 4.4497 9.25626 4.73656C6.06016 4.56941 3.20965 3.04251 1.31458 0.704732C0.969277 1.29452 0.788326 1.96606 0.790554 2.6495C0.790554 3.98666 1.47043 5.16572 2.50719 5.85915C1.89621 5.83509 1.29954 5.66715 0.765708 5.369V5.41644C0.765708 7.28892 2.08932 8.84067 3.85339 9.19755C3.52217 9.28358 3.18143 9.3276 2.83922 9.32855C2.5885 9.32855 2.35133 9.30371 2.11191 9.26983C2.59979 10.7967 4.02053 11.9058 5.71232 11.9419C4.38871 12.9787 2.7308 13.5885 0.930596 13.5885C0.607598 13.5885 0.309446 13.5772 0 13.5411C1.7076 14.6366 3.73368 15.269 5.91561 15.269C12.999 15.269 16.8749 9.40083 16.8749 4.3074C16.8749 4.14026 16.8749 3.97311 16.8637 3.80596C17.6136 3.25709 18.2708 2.57722 18.7949 1.81377Z" fill="black"/>
</svg>
