<svg width="23" height="19" viewBox="0 0 23 19" fill="none" xmlns="http://www.w3.org/2000/svg">
<path d="M22.5096 2.17225C21.6818 2.52933 20.781 2.78632 19.8531 2.88641C20.8165 2.3141 21.5379 1.40994 21.882 0.343566C20.978 0.881321 19.9877 1.25841 18.955 1.45809C18.5234 0.996662 18.0014 0.629068 17.4215 0.378212C16.8416 0.127357 16.2162 -0.00138445 15.5844 1.12275e-05C13.028 1.12275e-05 10.9721 2.07216 10.9721 4.61501C10.9721 4.97209 11.0154 5.32917 11.0857 5.67272C7.25793 5.47254 3.84403 3.64386 1.5744 0.84402C1.16085 1.55038 0.944136 2.35465 0.946804 3.17316C0.946804 4.77461 1.76106 6.1867 3.00272 7.01718C2.27099 6.98837 1.55639 6.78724 0.917048 6.43017V6.48697C0.917048 8.72955 2.50227 10.588 4.615 11.0154C4.21831 11.1184 3.81023 11.1712 3.40038 11.1723C3.10011 11.1723 2.81607 11.1425 2.52932 11.102C3.11363 12.9307 4.81518 14.2589 6.84134 14.3022C5.25612 15.5438 3.27053 16.2742 1.11452 16.2742C0.727687 16.2742 0.370606 16.2607 0 16.2174C2.0451 17.5294 4.47162 18.2869 7.0848 18.2869C15.5682 18.2869 20.2102 11.2589 20.2102 5.15874C20.2102 4.95856 20.2102 4.75838 20.1967 4.5582C21.0948 3.90085 21.882 3.08659 22.5096 2.17225Z" fill="#37474F"/>
</svg>
