<svg width="39" height="38" viewBox="0 0 39 38" fill="none" xmlns="http://www.w3.org/2000/svg">
<path id="Vector" d="M36.7588 4.12111L28.9418 0.360443C28.4997 0.146256 28.0018 0.0751878 27.5174 0.157125C27.0331 0.239061 26.5863 0.469929 26.2392 0.817612L11.2666 14.4793L4.74154 9.53114C4.44767 9.30648 4.08427 9.1921 3.71471 9.20794C3.34514 9.22378 2.99287 9.36884 2.7193 9.61782L0.629387 11.5225C0.466039 11.6701 0.335359 11.8503 0.245736 12.0514C0.156113 12.2524 0.109527 12.4701 0.108968 12.6902C0.108409 12.9104 0.153889 13.1282 0.24249 13.3298C0.33109 13.5314 0.460853 13.7121 0.62345 13.8606L6.28285 19.0248L0.62345 24.1891C0.460853 24.3375 0.33109 24.5183 0.24249 24.7199C0.153889 24.9214 0.108409 25.1393 0.108968 25.3594C0.109527 25.5796 0.156113 25.7972 0.245736 25.9983C0.335359 26.1994 0.466039 26.3795 0.629387 26.5271L2.7193 28.4318C2.99287 28.6808 3.34514 28.8259 3.71471 28.8417C4.08427 28.8576 4.44767 28.7432 4.74154 28.5185L11.2666 23.5645L26.2463 37.232C26.5921 37.5797 27.038 37.8106 27.5214 37.8926C28.0049 37.9745 28.5019 37.9034 28.943 37.6892L36.7671 33.9226C37.17 33.7291 37.5099 33.4254 37.7474 33.0467C37.9848 32.668 38.1102 32.2298 38.109 31.7828V6.25852C38.109 5.34893 37.5829 4.51415 36.7612 4.11873L36.7588 4.12111ZM28.6129 27.654L17.2454 19.026L28.6129 10.398V27.654Z" fill="#00A3FF"/>
</svg>
