<svg width="15" height="20" viewBox="0 0 15 20" fill="none" xmlns="http://www.w3.org/2000/svg">
<path d="M14.464 19.8857C14.3022 19.9698 14.1206 20.0083 13.9386 19.997C13.7566 19.9858 13.5811 19.9251 13.431 19.8217L0.431 10.8217C0.298162 10.7296 0.189607 10.6068 0.11463 10.4636C0.0396527 10.3205 0.000488281 10.1613 0.000488281 9.99966C0.000488281 9.83806 0.0396527 9.67886 0.11463 9.53571C0.189607 9.39255 0.298162 9.26969 0.431 9.17766L13.431 0.177663C13.581 0.0738554 13.7566 0.0130678 13.9387 0.00188176C14.1208 -0.00930423 14.3025 0.0295378 14.4641 0.114202C14.6257 0.198866 14.761 0.326126 14.8555 0.482203C14.95 0.638279 14.9999 0.817225 15 0.999663L7.5 9.99966L15 18.9997C15 19.1822 14.9501 19.3613 14.8556 19.5174C14.7611 19.6736 14.6257 19.801 14.464 19.8857Z" fill="#37474F"/>
</svg>
