<svg width="30" height="28" viewBox="0 0 30 28" fill="none" xmlns="http://www.w3.org/2000/svg">
<g id="back-arrow-icon-hover">
<rect width="30" height="28" fill="white"/>
<path id="arrow-vector" fill-rule="evenodd" clip-rule="evenodd" d="M24 14.438C24 14.7198 23.8881 14.99 23.6888 15.1892C23.4896 15.3885 23.2194 15.5004 22.9376 15.5004H10.6289L15.1907 20.0601C15.2895 20.1589 15.3679 20.2762 15.4213 20.4052C15.4748 20.5343 15.5023 20.6726 15.5023 20.8123C15.5023 20.952 15.4748 21.0903 15.4213 21.2194C15.3679 21.3484 15.2895 21.4657 15.1907 21.5645C15.092 21.6632 14.9747 21.7416 14.8456 21.7951C14.7166 21.8485 14.5783 21.876 14.4386 21.876C14.2989 21.876 14.1606 21.8485 14.0315 21.7951C13.9024 21.7416 13.7852 21.6632 13.6864 21.5645L7.31211 15.1902C7.21318 15.0915 7.13468 14.9743 7.08113 14.8452C7.02757 14.7161 7 14.5778 7 14.438C7 14.2983 7.02757 14.1599 7.08113 14.0308C7.13468 13.9018 7.21318 13.7845 7.31211 13.6858L13.6864 7.31156C13.8859 7.11207 14.1565 7 14.4386 7C14.7207 7 14.9912 7.11207 15.1907 7.31156C15.3902 7.51104 15.5023 7.78161 15.5023 8.06372C15.5023 8.34584 15.3902 8.6164 15.1907 8.81589L10.6289 13.3756H22.9376C23.2194 13.3756 23.4896 13.4876 23.6888 13.6868C23.8881 13.886 24 14.1563 24 14.438Z" fill="#37474F"/>
</g>
</svg>
