<svg width="33" height="24" viewBox="0 0 33 24" fill="none" xmlns="http://www.w3.org/2000/svg">
<rect x="3" y="2" width="18" height="15" fill="#FF5555"/>
<path d="M28.8002 6.2263C28.6109 5.98072 28.3184 5.83687 28.0083 5.83687H25C24.4477 5.83687 24 5.38915 24 4.83687V1C24 0.447715 23.5523 0 23 0H3C1.35 0 0 1.3133 0 2.91843V17.9698C0 18.5221 0.447715 18.9698 1 18.9698H2C2.55228 18.9698 2.98797 19.4238 3.11529 19.9612C3.57559 21.904 5.36063 23.3475 7.5 23.3475C9.63937 23.3475 11.4244 21.904 11.8847 19.9612C12.012 19.4238 12.4477 18.9698 13 18.9698H20C20.5523 18.9698 20.988 19.4238 21.1153 19.9612C21.5756 21.904 23.3606 23.3475 25.5 23.3475C27.6394 23.3475 29.4244 21.904 29.8847 19.9612C30.012 19.4238 30.4477 18.9698 31 18.9698H32C32.5523 18.9698 33 18.5221 33 17.9698V12.0145C33 11.7935 32.9268 11.5789 32.792 11.4039L28.8002 6.2263ZM27.2716 8.02569C27.5741 8.02569 27.8604 8.16265 28.0502 8.3982L29.3784 10.0462C29.9056 10.7004 29.4399 11.6737 28.5998 11.6737H25C24.4477 11.6737 24 11.226 24 10.6737V9.02569C24 8.47341 24.4477 8.02569 25 8.02569H27.2716ZM7.5 20.429C6.675 20.429 6 19.7724 6 18.9698C6 18.1673 6.675 17.5106 7.5 17.5106C8.325 17.5106 9 18.1673 9 18.9698C9 19.7724 8.325 20.429 7.5 20.429ZM11.2666 16.0514C10.9882 16.0514 10.7262 15.9311 10.5187 15.7455C9.72205 15.033 8.67493 14.5922 7.5 14.5922C6.29537 14.5922 5.22509 15.0555 4.4214 15.8C4.25508 15.9541 4.04114 16.0514 3.81441 16.0514V16.0514C3.36462 16.0514 3 15.6868 3 15.237V3.91843C3 3.36615 3.44772 2.91843 4 2.91843H20C20.5523 2.91843 21 3.36615 21 3.91843V15.0514C21 15.6037 20.5523 16.0514 20 16.0514H11.2666ZM25.5 20.429C24.675 20.429 24 19.7724 24 18.9698C24 18.1673 24.675 17.5106 25.5 17.5106C26.325 17.5106 27 18.1673 27 18.9698C27 19.7724 26.325 20.429 25.5 20.429Z" fill="black"/>
</svg>
