<svg width="339" height="163" viewBox="0 0 339 163" fill="none" xmlns="http://www.w3.org/2000/svg">
<rect width="339" height="163" rx="5" fill="#37474F"/>
<g clip-path="url(#clip0)">
<path d="M120.528 26.095C120.962 26.0962 121.391 26.178 121.795 26.3364C122.219 26.5011 122.587 26.7351 122.892 27.0144C123.982 24.7486 125.724 21.1062 126.407 19.5149C126.731 18.7598 126.182 17.8327 125.242 17.4671C124.302 17.1016 123.271 17.4146 123 18.1905C122.43 19.8258 121.254 23.6884 120.528 26.095" fill="white"/>
<path d="M118.335 27.8579C118.499 27.4346 118.734 27.0648 119.014 26.7621C116.75 25.6701 113.107 23.9298 111.514 23.2459C110.76 22.9225 109.833 23.4706 109.467 24.4112C109.101 25.3516 109.415 26.3818 110.19 26.6532C111.827 27.2234 115.688 28.3989 118.096 29.125C118.095 28.6914 118.176 28.2616 118.335 27.8579" fill="white"/>
<path d="M116.492 17.0925L115.1 17.7053L118.757 26.0141C119.198 25.7598 119.665 25.5543 120.15 25.4014L116.492 17.0925Z" fill="white"/>
<path d="M122.897 31.6384C122.456 31.893 121.988 32.0985 121.503 32.2513L125.161 40.5607L126.553 39.9479L122.897 31.6384" fill="white"/>
<path d="M131.463 31.0001C129.827 30.429 125.965 29.2525 123.558 28.5284C123.559 28.9406 123.482 29.3717 123.318 29.7952C123.162 30.1997 122.932 30.5715 122.639 30.8912C124.904 31.9809 128.547 33.723 130.138 34.4072C130.893 34.7308 131.82 34.1828 132.186 33.2422C132.552 32.3016 132.238 31.2714 131.463 31.0001Z" fill="white"/>
<path d="M121.125 31.5578C120.713 31.5597 120.282 31.4827 119.859 31.3182C119.435 31.1536 119.066 30.9193 118.763 30.6394C117.672 32.9048 115.932 36.5467 115.247 38.1387C114.924 38.8925 115.471 39.8206 116.412 40.1863C117.352 40.5518 118.383 40.2373 118.654 39.4629C119.225 37.8269 120.4 33.9646 121.125 31.5578Z" fill="white"/>
<path d="M124.253 28.1511L132.561 24.4927L131.948 23.0999L123.638 26.7565C123.893 27.1978 124.099 27.6654 124.253 28.1511" fill="white"/>
<path d="M117.401 29.5023L109.092 33.1599L109.705 34.5529L118.015 30.8952C117.76 30.4547 117.554 29.9876 117.401 29.5023" fill="white"/>
<path d="M120.164 30.5306C121.105 30.8964 122.165 30.4301 122.531 29.489C122.896 28.548 122.43 27.4886 121.489 27.1228C120.548 26.757 119.489 27.2233 119.123 28.1644C118.757 29.1054 119.223 30.1648 120.164 30.5306Z" fill="white"/>
</g>
<path d="M139.713 147.454C139.994 147.56 140.3 147.576 140.589 147.5L140.588 147.496C140.861 147.425 141.108 147.276 141.297 147.067C141.487 146.858 141.61 146.598 141.653 146.319L141.779 144.36C141.81 143.916 141.944 143.485 142.17 143.102C142.397 142.718 142.709 142.392 143.083 142.15L144.659 141.145C144.911 140.975 145.103 140.731 145.208 140.446C145.313 140.161 145.326 139.85 145.244 139.558C145.162 139.266 144.99 139.007 144.753 138.818C144.515 138.629 144.224 138.519 143.921 138.505L142.079 138.394C141.632 138.364 141.199 138.23 140.814 138.003C140.428 137.776 140.101 137.462 139.858 137.087L138.852 135.512C138.683 135.263 138.442 135.073 138.16 134.968C137.878 134.863 137.571 134.849 137.281 134.927C136.991 135.004 136.732 135.17 136.541 135.402C136.349 135.634 136.235 135.919 136.213 136.219L136.099 138.1C136.066 138.534 135.935 138.955 135.716 139.332C135.497 139.708 135.195 140.03 134.833 140.273L133.257 141.272C133.006 141.439 132.814 141.68 132.707 141.962C132.6 142.245 132.585 142.553 132.662 142.844C132.74 143.136 132.906 143.396 133.139 143.587C133.372 143.779 133.659 143.893 133.959 143.914L135.8 144.024C136.247 144.055 136.68 144.19 137.066 144.417C137.451 144.645 137.779 144.959 138.022 145.335L139.027 146.908C139.194 147.157 139.434 147.348 139.713 147.453L139.713 147.454ZM148.402 150.415C148.183 150.331 147.996 150.181 147.867 149.986L147.297 149.094C147.187 148.924 147.04 148.782 146.866 148.68C146.692 148.577 146.497 148.517 146.295 148.503L145.255 148.439C145.016 148.422 144.789 148.331 144.604 148.178C144.42 148.025 144.288 147.819 144.227 147.587C144.168 147.357 144.181 147.114 144.267 146.892C144.352 146.67 144.504 146.48 144.702 146.348L145.594 145.78C145.759 145.669 145.895 145.522 145.994 145.349C146.093 145.177 146.15 144.985 146.163 144.787L146.228 143.745C146.245 143.509 146.336 143.284 146.487 143.101C146.637 142.919 146.841 142.788 147.07 142.726C147.299 142.664 147.541 142.675 147.763 142.757C147.985 142.839 148.177 142.988 148.31 143.183L148.883 144.082C148.994 144.25 149.141 144.39 149.314 144.491C149.487 144.593 149.682 144.653 149.882 144.666L150.923 144.73C151.163 144.742 151.392 144.829 151.579 144.978C151.767 145.128 151.902 145.332 151.966 145.563C152.03 145.794 152.02 146.039 151.938 146.264C151.855 146.489 151.703 146.682 151.505 146.816L150.606 147.389C150.437 147.499 150.297 147.647 150.195 147.82C150.093 147.994 150.034 148.189 150.02 148.39L149.957 149.428C149.939 149.67 149.846 149.901 149.688 150.086C149.535 150.269 149.329 150.398 149.098 150.457C148.867 150.516 148.623 150.501 148.402 150.415V150.415Z" fill="#FF5555"/>
<path d="M166.399 26.8099C166.575 26.9341 166.786 27.0005 167.001 26.9999C167.217 26.9994 167.427 26.932 167.603 26.8069C167.781 26.6769 167.916 26.4969 167.99 26.2889L168.437 24.9159C168.551 24.5716 168.744 24.2587 169.001 24.002C169.257 23.7453 169.57 23.5518 169.914 23.4369L171.305 22.9859C171.51 22.9115 171.688 22.7744 171.811 22.5939C171.935 22.4135 171.999 22.1988 171.994 21.9801C171.989 21.7615 171.916 21.5498 171.784 21.3751C171.653 21.2003 171.47 21.0712 171.261 21.0059L169.886 20.5589C169.541 20.4447 169.228 20.2517 168.971 19.9953C168.714 19.739 168.521 19.4262 168.406 19.0819L167.954 17.6939C167.881 17.4894 167.746 17.3127 167.568 17.1884C167.391 17.064 167.178 16.9982 166.961 17C166.744 17.0019 166.533 17.0714 166.357 17.1988C166.182 17.3262 166.05 17.5052 165.981 17.7109L165.524 19.1109C165.409 19.4458 165.22 19.7502 164.971 20.0012C164.721 20.2522 164.418 20.4433 164.084 20.5599L162.694 21.0079C162.489 21.0809 162.313 21.2156 162.188 21.3935C162.064 21.5714 161.998 21.7836 162 22.0006C162.002 22.2176 162.071 22.4287 162.198 22.6046C162.325 22.7804 162.504 22.9123 162.71 22.9819L164.084 23.4269C164.43 23.542 164.744 23.7365 165.001 23.9949C165.258 24.2533 165.451 24.5684 165.565 24.9149L166.017 26.3059C166.089 26.5089 166.223 26.6859 166.399 26.8099V26.8099ZM166.484 19.3949L167.011 18.0179L167.451 19.3949C167.614 19.888 167.891 20.3359 168.259 20.703C168.626 21.07 169.075 21.346 169.568 21.5089L170.974 22.0379L169.592 22.4859C169.099 22.6503 168.651 22.9272 168.284 23.2946C167.917 23.6621 167.641 24.11 167.477 24.6029L166.954 25.9809L166.505 24.6019C166.344 24.1087 166.07 23.6598 165.705 23.2909C165.336 22.9229 164.887 22.6453 164.393 22.4799L163.015 21.9579L164.401 21.5079C164.887 21.3394 165.329 21.0613 165.691 20.6949C166.05 20.3271 166.321 19.8826 166.484 19.3949V19.3949ZM172.536 30.8519C172.638 30.9238 172.756 30.971 172.879 30.9896C173.003 31.0082 173.129 30.9978 173.248 30.9592C173.367 30.9206 173.475 30.8548 173.565 30.7671C173.654 30.6794 173.721 30.5722 173.762 30.4539L174.01 29.6919C174.063 29.5335 174.152 29.3895 174.27 29.2709C174.388 29.1529 174.532 29.0639 174.69 29.0119L175.462 28.7599C175.621 28.7052 175.76 28.6013 175.857 28.4632C175.954 28.3251 176.005 28.1599 176.002 27.9911C176 27.8223 175.944 27.6586 175.843 27.5235C175.741 27.3884 175.6 27.2888 175.439 27.2389L174.675 26.9899C174.517 26.9374 174.373 26.8487 174.255 26.7311C174.137 26.6134 174.048 26.4699 173.995 26.3119L173.743 25.5389C173.689 25.3799 173.586 25.242 173.449 25.1447C173.312 25.0474 173.148 24.9956 172.98 24.9967C172.812 24.9978 172.649 25.0517 172.513 25.1509C172.378 25.25 172.277 25.3892 172.225 25.5489L171.978 26.3109C171.927 26.4678 171.84 26.6107 171.725 26.7285C171.61 26.8463 171.469 26.9358 171.313 26.9899L170.54 27.2419C170.381 27.2958 170.243 27.3984 170.145 27.5352C170.048 27.6719 169.996 27.8359 169.997 28.0038C169.997 28.1717 170.051 28.3351 170.15 28.4709C170.249 28.6066 170.388 28.7077 170.548 28.7599L171.311 29.0069C171.471 29.0599 171.615 29.1499 171.733 29.2679C171.852 29.3859 171.94 29.5309 171.991 29.6899L172.244 30.4639C172.299 30.6204 172.401 30.756 172.536 30.8519ZM171.623 28.0589L171.444 27.9999L171.628 27.9359C171.93 27.8296 172.205 27.6557 172.43 27.4275C172.655 27.1993 172.825 26.9228 172.928 26.6189L172.986 26.4409L173.046 26.6219C173.148 26.9285 173.32 27.207 173.548 27.4355C173.777 27.6639 174.055 27.836 174.362 27.9379L174.557 28.0009L174.377 28.0599C174.069 28.1621 173.79 28.3348 173.562 28.5642C173.333 28.7936 173.161 29.0733 173.06 29.3809L173.001 29.5619L172.943 29.3809C172.841 29.0727 172.669 28.7926 172.44 28.563C172.211 28.3334 171.931 28.1607 171.623 28.0589V28.0589Z" fill="#0085FF"/>
<path d="M294.428 98.4198C292.129 100.618 288.485 100.536 286.287 98.2359C284.089 95.9362 284.172 92.2931 286.471 90.095C288.771 87.8968 292.414 87.9791 294.612 90.2789C296.81 92.5786 296.728 96.2217 294.428 98.4198ZM287.435 105.104L281.941 110.355L271 98.9087L273.081 96.9194C275.381 94.7213 280.357 96.198 284.206 100.225C285.698 101.786 286.78 103.48 287.435 105.104V105.104ZM294.871 123.883L283.93 112.437L301.621 95.5279L312.562 106.975L294.871 123.883ZM295.759 107.104C296.449 106.445 297.373 106.086 298.327 106.108C299.281 106.129 300.188 106.529 300.847 107.219C301.507 107.909 301.865 108.833 301.844 109.787C301.822 110.741 301.422 111.648 300.732 112.307C300.042 112.967 299.119 113.325 298.165 113.303C297.21 113.282 296.304 112.882 295.644 112.192C294.985 111.502 294.626 110.579 294.648 109.624C294.67 108.67 295.069 107.764 295.759 107.104V107.104ZM306.41 108.872C305.882 108.32 305.596 107.581 305.613 106.818C305.63 106.054 305.95 105.329 306.502 104.801L303.518 101.68C302.363 102.784 300.551 102.743 299.447 101.588L290.082 110.539C290.61 111.091 290.896 111.83 290.879 112.594C290.862 113.357 290.542 114.082 289.99 114.61L292.974 117.732C294.119 116.638 295.95 116.679 297.044 117.824L306.41 108.872Z" fill="#FF5555"/>
<path d="M202 123.95C202 122.637 202.522 121.378 203.45 120.45C204.378 119.522 205.637 119 206.95 119H230.05C231.363 119 232.622 119.522 233.55 120.45C234.478 121.378 235 122.637 235 123.95V137.15C235 138.463 234.478 139.722 233.55 140.65C232.622 141.578 231.363 142.1 230.05 142.1H223.45V145.4H225.1C225.538 145.4 225.957 145.574 226.267 145.883C226.576 146.193 226.75 146.612 226.75 147.05C226.75 147.488 226.576 147.907 226.267 148.217C225.957 148.526 225.538 148.7 225.1 148.7H211.9C211.462 148.7 211.043 148.526 210.733 148.217C210.424 147.907 210.25 147.488 210.25 147.05C210.25 146.612 210.424 146.193 210.733 145.883C211.043 145.574 211.462 145.4 211.9 145.4H213.55V142.1H206.95C205.637 142.1 204.378 141.578 203.45 140.65C202.522 139.722 202 138.463 202 137.15V123.95ZM216.85 142.1V145.4H220.15V142.1H216.85ZM206.95 122.3C206.512 122.3 206.093 122.474 205.783 122.783C205.474 123.093 205.3 123.512 205.3 123.95V137.15C205.3 137.588 205.474 138.007 205.783 138.317C206.093 138.626 206.512 138.8 206.95 138.8H230.05C230.488 138.8 230.907 138.626 231.217 138.317C231.526 138.007 231.7 137.588 231.7 137.15V123.95C231.7 123.512 231.526 123.093 231.217 122.783C230.907 122.474 230.488 122.3 230.05 122.3H206.95Z" fill="white"/>
<path d="M63.23 46.4768L55.6326 30.1587M46.6918 29.909C49.1431 28.7678 50.7088 30.055 51.4661 31.0089C51.8095 31.4415 51.6005 32.036 51.0998 32.2691L45.6605 34.8015C45.1598 35.0346 44.5704 34.8119 44.4604 34.2707C44.2178 33.077 44.2406 31.0503 46.6918 29.909ZM48.725 53.23L41.1277 36.9119L48.725 53.23ZM67.7628 44.3664L44.1922 55.3404C43.6916 55.5735 43.0967 55.3566 42.8636 54.8559L36.1104 40.3509C35.8773 39.8502 36.0942 39.2554 36.5949 39.0223L60.1654 28.0483C60.6661 27.8152 61.261 28.0321 61.4941 28.5328L68.2473 43.0378C68.4804 43.5384 68.2635 44.1333 67.7628 44.3664Z" stroke="url(#paint0_linear)" stroke-width="2" stroke-linecap="round" stroke-linejoin="round"/>
<g filter="url(#filter0_i)">
<path d="M339 37L15.5 163H0V109.5L288.5 0.5H339V37Z" fill="white"/>
</g>
<path d="M70.868 108.921L73.4939 107.847L77.1039 116.67C77.4358 117.481 77.5485 118.273 77.4422 119.045C77.3393 119.809 77.0304 120.494 76.5153 121.1C76.0002 121.706 75.3313 122.177 74.5085 122.514C73.1605 123.065 71.9705 123.154 70.9384 122.779C69.9039 122.398 69.13 121.581 68.6167 120.326L71.2601 119.245C71.5156 119.869 71.8355 120.276 72.2198 120.467C72.6042 120.657 73.0794 120.636 73.6454 120.404C74.1472 120.199 74.4765 119.863 74.6333 119.397C74.79 118.931 74.7382 118.38 74.478 117.744L70.868 108.921ZM88.9374 109.304C89.4507 110.559 89.679 111.749 89.6223 112.876C89.5656 114.003 89.228 114.993 88.6095 115.845C87.9968 116.695 87.1566 117.339 86.0887 117.776C85.0325 118.208 83.9863 118.34 82.9499 118.171C81.9136 118.002 80.9756 117.541 80.1361 116.788C79.2941 116.029 78.6196 115.038 78.1123 113.815L77.8545 113.185C77.3412 111.93 77.1146 110.735 77.1747 109.6C77.2383 108.457 77.5777 107.463 78.1927 106.619C78.8112 105.767 79.6515 105.123 80.7135 104.688C81.7756 104.254 82.823 104.125 83.8559 104.302C84.8922 104.471 85.8308 104.941 86.6717 105.715C87.516 106.48 88.1937 107.486 88.7046 108.735L88.9374 109.304ZM86.0401 109.815C85.4934 108.479 84.8387 107.561 84.0761 107.063C83.3135 106.564 82.4887 106.496 81.6017 106.859C80.7206 107.22 80.1816 107.842 79.9849 108.726C79.7857 109.605 79.9542 110.708 80.4903 112.035L80.7446 112.656C81.277 113.958 81.9293 114.869 82.7015 115.391C83.4737 115.913 84.3091 115.99 85.2077 115.623C86.0888 115.262 86.6249 114.641 86.8158 113.759C87.0043 112.871 86.8305 111.764 86.2944 110.437L86.0401 109.815ZM93.3346 114.607L88.1202 101.862L92.5842 100.036C94.1305 99.4032 95.4252 99.2209 96.4682 99.489C97.5088 99.7512 98.263 100.454 98.731 101.598C98.9865 102.222 99.0516 102.839 98.9265 103.449C98.7989 104.053 98.4946 104.583 98.0134 105.039C98.7338 104.935 99.3822 105.054 99.9586 105.398C100.541 105.738 100.979 106.268 101.273 106.985C101.774 108.211 101.763 109.299 101.238 110.249C100.714 111.199 99.7312 111.976 98.2888 112.58L93.3346 114.607ZM93.6899 107.983L95.0974 111.423L97.3469 110.502C97.9654 110.249 98.3872 109.906 98.6121 109.474C98.8404 109.033 98.8484 108.553 98.6359 108.034C98.1584 106.866 97.3121 106.521 96.097 106.998L93.6899 107.983ZM92.9307 106.127L94.8738 105.332C96.1889 104.767 96.6351 103.968 96.2125 102.935C95.9762 102.357 95.6374 102.012 95.1963 101.9C94.7587 101.779 94.178 101.867 93.4544 102.163L91.6163 102.915L92.9307 106.127ZM117.227 97.7292C117.74 98.9838 117.969 100.175 117.912 101.301C117.855 102.428 117.518 103.418 116.899 104.27C116.287 105.12 115.446 105.764 114.378 106.201C113.322 106.633 112.276 106.765 111.24 106.596C110.203 106.428 109.265 105.967 108.426 105.213C107.584 104.454 106.909 103.463 106.402 102.24L106.144 101.61C105.631 100.355 105.404 99.1605 105.464 98.0255C105.528 96.8823 105.867 95.8885 106.482 95.0442C107.101 94.1916 107.941 93.5481 109.003 93.1136C110.065 92.679 111.113 92.5502 112.146 92.7271C113.182 92.8957 114.121 93.3666 114.961 94.1398C115.806 94.9047 116.483 95.9115 116.994 97.1603L117.227 97.7292ZM114.33 98.2403C113.783 96.904 113.128 95.9865 112.366 95.4879C111.603 94.9893 110.778 94.9214 109.891 95.2843C109.01 95.6448 108.471 96.2673 108.275 97.1516C108.075 98.0301 108.244 99.1329 108.78 100.46L109.034 101.081C109.567 102.383 110.219 103.294 110.991 103.816C111.763 104.338 112.599 104.415 113.497 104.048C114.378 103.687 114.915 103.066 115.105 102.184C115.294 101.296 115.12 100.189 114.584 98.8617L114.33 98.2403ZM122.413 97.4671L124.25 101.957L121.624 103.032L116.41 90.2875L121.382 88.2533C122.339 87.8617 123.25 87.693 124.117 87.747C124.99 87.7987 125.754 88.0684 126.41 88.5562C127.064 89.0381 127.559 89.6905 127.896 90.5132C128.407 91.762 128.381 92.9236 127.819 93.9982C127.261 95.0645 126.226 95.9069 124.715 96.5253L122.413 97.4671ZM121.543 95.3402L123.888 94.3804C124.583 94.0963 125.044 93.7168 125.272 93.242C125.506 92.7648 125.499 92.2228 125.251 91.6159C124.995 90.9915 124.605 90.562 124.08 90.3272C123.554 90.0925 122.966 90.1018 122.313 90.3552L119.906 91.3401L121.543 95.3402ZM133.984 92.7326L135.822 97.2229L133.196 98.2973L127.981 85.553L132.953 83.5188C133.91 83.1272 134.822 82.9585 135.689 83.0125C136.561 83.0642 137.326 83.3339 137.982 83.8217C138.635 84.3036 139.13 84.9559 139.467 85.7787C139.978 87.0275 139.953 88.1891 139.391 89.2637C138.833 90.33 137.798 91.1724 136.286 91.7907L133.984 92.7326ZM133.114 90.6056L135.46 89.6459C136.154 89.3617 136.616 88.9823 136.844 88.5075C137.078 88.0303 137.07 87.4882 136.822 86.8814C136.567 86.257 136.176 85.8274 135.651 85.5927C135.126 85.358 134.537 85.3673 133.885 85.6207L131.477 86.6055L133.114 90.6056ZM152.747 83.1962C153.26 84.4508 153.488 85.6415 153.432 86.7682C153.375 87.895 153.037 88.8847 152.419 89.7372C151.806 90.5874 150.966 91.2309 149.898 91.6678C148.842 92.1 147.796 92.2317 146.759 92.0631C145.723 91.8945 144.785 91.4335 143.945 90.6802C143.103 89.9212 142.429 88.9301 141.922 87.7071L141.664 87.0768C141.15 85.8222 140.924 84.6275 140.984 83.4925C141.048 82.3492 141.387 81.3555 142.002 80.5111C142.621 79.6586 143.461 79.0151 144.523 78.5805C145.585 78.146 146.632 78.0172 147.665 78.194C148.702 78.3627 149.64 78.8336 150.481 79.6067C151.325 80.3716 152.003 81.3785 152.514 82.6272L152.747 83.1962ZM149.849 83.7072C149.303 82.3709 148.648 81.4535 147.885 80.9548C147.123 80.4562 146.298 80.3884 145.411 80.7513C144.53 81.1118 143.991 81.7342 143.794 82.6186C143.595 83.4971 143.763 84.5998 144.3 85.9268L144.554 86.5483C145.086 87.8496 145.739 88.7612 146.511 89.2832C147.283 89.8051 148.118 89.8823 149.017 89.5146C149.898 89.1541 150.434 88.5328 150.625 87.6509C150.814 86.7631 150.64 85.6557 150.104 84.3287L149.849 83.7072ZM159.953 81.9031L157.861 82.759L159.77 87.4244L157.144 88.4988L151.929 75.7544L156.665 73.8169C158.17 73.2009 159.469 73.0613 160.56 73.3982C161.652 73.735 162.448 74.5161 162.95 75.7415C163.305 76.611 163.413 77.415 163.273 78.1538C163.135 78.8843 162.755 79.578 162.132 80.2351L167.02 84.315L167.07 84.4376L164.251 85.5907L159.953 81.9031ZM156.991 80.6321L159.109 79.7654C159.768 79.4956 160.211 79.1204 160.437 78.6397C160.66 78.1532 160.651 77.6153 160.41 77.026C160.164 76.4249 159.798 76.0227 159.313 75.8193C158.834 75.6135 158.241 75.655 157.535 75.9439L155.426 76.807L156.991 80.6321ZM173.404 69.4509L169.5 71.0482L173.845 81.6656L171.219 82.74L166.875 72.1226L163.023 73.6984L162.153 71.5714L172.534 67.324L173.404 69.4509ZM183.685 62.7614L187.12 71.1555C187.69 72.5501 187.704 73.8321 187.161 75.0013C186.623 76.1682 185.599 77.0608 184.087 77.6792C182.599 78.288 181.256 78.3776 180.059 77.9479C178.861 77.5183 177.972 76.6185 177.391 75.2485L173.917 66.7581L176.543 65.6837L179.985 74.0953C180.326 74.9298 180.774 75.4584 181.328 75.6812C181.886 75.8957 182.518 75.8586 183.224 75.5697C184.7 74.9656 185.133 73.8827 184.521 72.321L181.051 63.8393L183.685 62.7614ZM201.416 70.3844L198.791 71.4588L190.248 65.1649L193.679 73.5503L191.053 74.6247L185.839 61.8803L188.464 60.8059L197.023 67.1137L193.585 58.7109L196.202 57.64L201.416 70.3844ZM206.502 68.3036L203.876 69.378L198.662 56.6337L201.288 55.5593L206.502 68.3036ZM213.931 52.8694L210.027 54.4667L214.371 65.084L211.745 66.1584L207.401 55.5411L203.55 57.1168L202.679 54.9899L213.06 50.7424L213.931 52.8694ZM222.572 61.7283L219.947 62.8027L214.732 50.0584L217.358 48.984L222.572 61.7283ZM230.422 52.0687L225.381 54.1316L226.777 57.5453L232.694 55.1243L233.557 57.2337L225.015 60.7291L219.8 47.9848L228.326 44.4966L229.196 46.6235L223.296 49.0373L224.539 52.0746L229.581 50.0118L230.422 52.0687ZM240.338 50.5559C240.135 50.0599 239.805 49.7522 239.348 49.6329C238.888 49.5077 238.143 49.4855 237.113 49.5662C236.081 49.641 235.241 49.6441 234.593 49.5754C232.826 49.3856 231.671 48.6284 231.13 47.3038C230.848 46.6152 230.79 45.9237 230.955 45.2293C231.124 44.5266 231.508 43.8756 232.108 43.2761C232.713 42.6742 233.468 42.1882 234.372 41.8181C235.283 41.4457 236.162 41.2801 237.01 41.3215C237.855 41.357 238.597 41.5952 239.233 42.0363C239.876 42.475 240.354 43.0765 240.667 43.841L238.041 44.9154C237.802 44.3318 237.433 43.9548 236.934 43.7843C236.433 43.6079 235.85 43.6558 235.184 43.928C234.543 44.1906 234.1 44.5319 233.856 44.9518C233.61 45.3659 233.578 45.7947 233.759 46.2381C233.929 46.6524 234.278 46.9149 234.807 47.0255C235.341 47.1337 236.064 47.1444 236.976 47.0576C238.654 46.8957 239.97 47.0077 240.925 47.3936C241.88 47.7794 242.56 48.4684 242.966 49.4604C243.417 50.5633 243.355 51.6005 242.778 52.5722C242.199 53.538 241.203 54.3098 239.791 54.8875C238.811 55.2887 237.845 55.476 236.894 55.4495C235.941 55.4172 235.124 55.176 234.442 54.7259C233.767 54.2734 233.26 53.6358 232.924 52.813L235.558 51.735C236.134 53.1414 237.262 53.5007 238.942 52.8131C239.567 52.5576 240.003 52.2328 240.25 51.8386C240.495 51.4386 240.525 51.011 240.338 50.5559Z" fill="#0085FF"/>
<defs>
<filter id="filter0_i" x="0" y="0.5" width="339" height="166.5" filterUnits="userSpaceOnUse" color-interpolation-filters="sRGB">
<feFlood flood-opacity="0" result="BackgroundImageFix"/>
<feBlend mode="normal" in="SourceGraphic" in2="BackgroundImageFix" result="shape"/>
<feColorMatrix in="SourceAlpha" type="matrix" values="0 0 0 0 0 0 0 0 0 0 0 0 0 0 0 0 0 0 127 0" result="hardAlpha"/>
<feOffset dy="4"/>
<feGaussianBlur stdDeviation="2"/>
<feComposite in2="hardAlpha" operator="arithmetic" k2="-1" k3="1"/>
<feColorMatrix type="matrix" values="0 0 0 0 0 0 0 0 0 0 0 0 0 0 0 0 0 0 0.25 0"/>
<feBlend mode="normal" in2="shape" result="effect1_innerShadow"/>
</filter>
<linearGradient id="paint0_linear" x1="50.4905" y1="38.0681" x2="55.9775" y2="49.8534" gradientUnits="userSpaceOnUse">
<stop stop-color="#00FF75"/>
<stop offset="1" stop-color="#00A3FF"/>
</linearGradient>
<clipPath id="clip0">
<rect width="26" height="26" fill="white" transform="translate(113.42 12) rotate(21.2414)"/>
</clipPath>
</defs>
</svg>
