<svg width="339" height="163" viewBox="0 0 339 163" fill="none" xmlns="http://www.w3.org/2000/svg">
<rect width="339" height="163" rx="5" fill="#37474F"/>
<path d="M3.5 162.5L61 0H88L30.5 162.5H3.5Z" fill="#7289DA"/>
<path d="M269.183 27.5412C269.185 27.9486 269.213 28.3554 269.264 28.7595C267.826 29.2992 266.482 30.0615 265.28 31.0186C264.96 30.7669 264.625 30.5346 264.277 30.3232C263.154 31.2406 262.161 32.3064 261.325 33.4912C260.955 37.5919 262.056 41.6905 264.433 45.0529C266.329 45.2985 268.253 45.2146 270.12 44.8051C270.211 44.122 270.247 43.4328 270.228 42.7439C269.601 42.8468 268.966 42.8875 268.331 42.8654C268.411 42.7063 268.479 42.541 268.533 42.3712C270.282 42.254 271.981 41.7443 273.505 40.8801C275.029 40.0159 276.339 38.8193 277.337 37.3794C277.518 37.4147 277.694 37.4413 277.865 37.4593C277.554 38.0145 277.195 38.5412 276.792 39.0334C277.368 39.4223 277.976 39.762 278.609 40.0491C279.918 38.6595 280.975 37.0525 281.733 35.3002C280.076 31.5292 277.122 28.4773 273.407 26.6981C271.967 26.7886 270.547 27.0721 269.183 27.5412V27.5412ZM269.046 39.7471C268.593 39.9627 268.074 39.9944 267.598 39.8355C267.122 39.6767 266.726 39.3396 266.493 38.8952C266.229 38.468 266.141 37.9545 266.25 37.4638C266.358 36.9731 266.653 36.544 267.073 36.2675C267.525 36.0494 268.045 36.0163 268.522 36.1754C268.998 36.3345 269.394 36.6731 269.625 37.1194C269.889 37.5466 269.977 38.0602 269.869 38.5508C269.761 39.0415 269.465 39.4707 269.046 39.7471V39.7471ZM274.822 36.4718C274.369 36.6874 273.85 36.7191 273.374 36.5602C272.898 36.4014 272.502 36.0644 272.269 35.6199C272.005 35.1927 271.917 34.6792 272.026 34.1885C272.134 33.6978 272.429 33.2687 272.849 32.9923C273.301 32.7715 273.822 32.737 274.299 32.8963C274.776 33.0557 275.172 33.396 275.401 33.8442C275.668 34.2707 275.757 34.785 275.649 35.2764C275.54 35.7678 275.243 36.1971 274.822 36.4718V36.4718Z" fill="black"/>
<path d="M91.7076 107.953C91.3315 108.11 90.9652 108.289 90.6106 108.49C89.567 107.362 88.3528 106.406 87.0123 105.656C87.1242 105.264 87.2124 104.866 87.2764 104.464C86.0025 103.772 84.6403 103.256 83.2274 102.93C79.2912 104.138 75.9138 106.708 73.7002 110.18C74.1901 112.028 74.9956 113.778 76.0812 115.352C76.7478 115.177 77.3994 114.95 78.0297 114.671C77.6974 114.13 77.4194 113.557 77.1997 112.961C77.3775 112.975 77.5561 112.976 77.7338 112.962C78.5036 114.536 79.6182 115.916 80.9947 117C82.3712 118.084 83.9742 118.843 85.6848 119.223C85.7205 119.403 85.7624 119.577 85.8106 119.742C85.179 119.664 84.5556 119.531 83.9474 119.344C83.8055 120.024 83.7209 120.716 83.6947 121.41C85.4763 122.097 87.3637 122.467 89.2725 122.506C92.1363 119.545 93.844 115.656 94.0857 111.544C93.4575 110.246 92.6576 109.038 91.7076 107.953V107.953ZM80.3568 112.443C79.9858 112.106 79.7602 111.637 79.7272 111.137C79.6942 110.636 79.8565 110.142 80.1799 109.758C80.4753 109.352 80.9176 109.077 81.4127 108.991C81.9079 108.906 82.4168 109.017 82.8314 109.301C83.2046 109.637 83.4318 110.106 83.4649 110.607C83.4979 111.109 83.3341 111.603 83.0083 111.986C82.7129 112.392 82.2706 112.667 81.7754 112.753C81.2803 112.838 80.7714 112.727 80.3568 112.443V112.443ZM85.5736 116.551C85.2026 116.213 84.977 115.745 84.944 115.244C84.911 114.744 85.0733 114.25 85.3967 113.866C85.6921 113.46 86.1344 113.185 86.6295 113.099C87.1247 113.014 87.6336 113.125 88.0482 113.409C88.4236 113.744 88.6525 114.213 88.6856 114.715C88.7187 115.217 88.5533 115.712 88.2251 116.093C87.9313 116.502 87.4888 116.779 86.9929 116.865C86.497 116.95 85.9873 116.838 85.5736 116.551V116.551Z" fill="#FF5555"/>
<path d="M271.708 134.953C271.331 135.11 270.965 135.289 270.611 135.49C269.567 134.362 268.353 133.406 267.012 132.656C267.124 132.264 267.212 131.866 267.276 131.464C266.002 130.772 264.64 130.256 263.227 129.93C259.291 131.138 255.914 133.708 253.7 137.18C254.19 139.028 254.996 140.778 256.081 142.352C256.748 142.177 257.399 141.95 258.03 141.671C257.697 141.13 257.419 140.557 257.2 139.961C257.377 139.975 257.556 139.976 257.734 139.962C258.504 141.536 259.618 142.916 260.995 144C262.371 145.084 263.974 145.843 265.685 146.223C265.721 146.403 265.762 146.577 265.811 146.742C265.179 146.664 264.556 146.531 263.947 146.344C263.805 147.024 263.721 147.716 263.695 148.41C265.476 149.097 267.364 149.467 269.272 149.506C272.136 146.545 273.844 142.656 274.086 138.544C273.458 137.246 272.658 136.038 271.708 134.953V134.953ZM260.357 139.443C259.986 139.106 259.76 138.637 259.727 138.137C259.694 137.636 259.856 137.142 260.18 136.758C260.475 136.352 260.918 136.077 261.413 135.991C261.908 135.906 262.417 136.017 262.831 136.301C263.205 136.637 263.432 137.106 263.465 137.607C263.498 138.109 263.334 138.603 263.008 138.986C262.713 139.392 262.271 139.667 261.775 139.753C261.28 139.838 260.771 139.727 260.357 139.443V139.443ZM265.574 143.551C265.203 143.213 264.977 142.745 264.944 142.244C264.911 141.744 265.073 141.25 265.397 140.866C265.692 140.46 266.134 140.185 266.63 140.099C267.125 140.014 267.634 140.125 268.048 140.409C268.424 140.744 268.653 141.213 268.686 141.715C268.719 142.217 268.553 142.712 268.225 143.093C267.931 143.502 267.489 143.779 266.993 143.865C266.497 143.95 265.987 143.838 265.574 143.551V143.551Z" fill="#FF5555"/>
<path d="M27.7076 19.9532C27.3315 20.1097 26.9652 20.2889 26.6106 20.4895C25.567 19.3623 24.3528 18.4062 23.0123 17.6561C23.1242 17.2644 23.2124 16.8663 23.2764 16.4639C22.0025 15.7716 20.6403 15.2557 19.2274 14.9303C15.2912 16.1384 11.9138 18.7085 9.70018 22.1801C10.1901 24.0282 10.9956 25.7777 12.0812 27.3516C12.7478 27.1772 13.3994 26.9497 14.0297 26.6712C13.6974 26.1299 13.4194 25.5572 13.1997 24.9612C13.3775 24.9755 13.5561 24.9757 13.7338 24.9618C14.5036 26.5357 15.6182 27.9158 16.9947 28.9997C18.3712 30.0836 19.9742 30.8434 21.6848 31.2226C21.7205 31.4035 21.7624 31.5765 21.8106 31.7417C21.179 31.664 20.5556 31.5308 19.9474 31.3437C19.8055 32.0243 19.7209 32.7156 19.6947 33.4104C21.4763 34.0966 23.3637 34.4674 25.2725 34.5059C28.1363 31.5452 29.844 27.6561 30.0857 23.5441C29.4575 22.246 28.6576 21.0382 27.7076 19.9532V19.9532ZM16.3568 24.4434C15.9858 24.1055 15.7602 23.6372 15.7272 23.1366C15.6942 22.6359 15.8565 22.142 16.1799 21.7585C16.4753 21.352 16.9176 21.0768 17.4127 20.9913C17.9079 20.9059 18.4168 21.0168 18.8314 21.3007C19.2046 21.6372 19.4318 22.1059 19.4649 22.6073C19.4979 23.1086 19.3341 23.6031 19.0083 23.9856C18.7129 24.392 18.2706 24.6672 17.7754 24.7527C17.2803 24.8382 16.7714 24.7272 16.3568 24.4434V24.4434ZM21.5736 28.5512C21.2026 28.2134 20.977 27.745 20.944 27.2444C20.911 26.7438 21.0733 26.2499 21.3967 25.8663C21.6921 25.4599 22.1344 25.1847 22.6295 25.0992C23.1247 25.0137 23.6336 25.1247 24.0482 25.4086C24.4236 25.7436 24.6525 26.2127 24.6856 26.7149C24.7187 27.217 24.5533 27.7121 24.2251 28.0935C23.9313 28.502 23.4888 28.7789 22.9929 28.8645C22.497 28.9501 21.9873 28.8376 21.5736 28.5512V28.5512Z" fill="#FF5555"/>
<g clip-path="url(#clip0)">
<path d="M116.667 64.9332C114.667 65.9332 114.2 67.3666 114.067 73.3666L113.933 78.5666L112.467 79.4332C111.033 80.2999 111 80.3666 111 81.9999C111 83.6332 111.033 83.6999 112.467 84.5666L113.933 85.4332L114.067 90.6332C114.267 98.3999 115.133 99.6666 120.367 99.6666H122.9L123.133 98.1332C123.467 95.5999 123.533 95.6666 121.4 95.6666C120.333 95.6666 119.3 95.4999 119.067 95.2666C118.8 94.9999 118.667 93.0999 118.667 88.9332V82.9999L117.833 82.5999C117.367 82.3999 117 82.1332 117 81.9999C117 81.8666 117.367 81.5999 117.833 81.3999L118.667 80.9999V75.0666C118.667 70.8999 118.8 68.9999 119.067 68.7332C119.3 68.4999 120.367 68.3332 121.433 68.3332H123.433L123.2 66.7999C123.1 65.9332 123 65.0332 123 64.7999C123 64.0666 118.167 64.1666 116.667 64.9332Z" fill="white"/>
<path d="M215.334 64.7999C215.334 65.0332 215.234 65.9332 215.134 66.7999L214.9 68.3332H216.9C217.967 68.3332 219.034 68.4999 219.267 68.7332C219.534 68.9999 219.667 70.8999 219.667 75.0665V80.9999L220.5 81.3999C220.967 81.5999 221.334 81.8665 221.334 81.9999C221.334 82.1332 220.967 82.3999 220.5 82.5999L219.667 82.9999V88.9332C219.667 93.0999 219.534 94.9999 219.267 95.2665C219.034 95.4999 217.967 95.6665 216.9 95.6665H214.9L215.134 97.1999C215.234 98.0665 215.334 98.9665 215.334 99.1999C215.334 99.9332 220.167 99.8332 221.667 99.0665C223.667 98.0665 224.134 96.6332 224.267 90.6332L224.4 85.4332L225.867 84.5665C227.3 83.6999 227.334 83.6332 227.334 81.9999C227.334 80.3665 227.3 80.2999 225.867 79.4332L224.4 78.5665L224.267 73.3665C224.134 67.3665 223.667 65.9332 221.667 64.9332C220.167 64.1665 215.334 64.0665 215.334 64.7999Z" fill="white"/>
<path d="M128.733 71.0665C128.1 71.2665 126.9 72.0999 126 72.8999C123.633 75.0332 122.9 77.0999 122.866 81.8332C122.833 86.1999 123.466 88.3999 125.266 90.3999C127.333 92.6999 128.633 93.1665 132.666 93.1332C135.566 93.1332 136.466 92.9999 137.833 92.3665C140.4 91.2332 140.4 91.1999 139.633 89.2332C139.266 88.2665 138.833 87.3665 138.7 87.2332C138.533 87.0665 137.666 87.3332 136.733 87.7999C132.3 90.0332 128.7 88.7999 127.833 84.7332L127.6 83.6665H133.8H140L140.2 82.7999C140.333 82.3332 140.333 80.7332 140.266 79.1999C140.066 75.6332 138.9 73.3332 136.5 71.8332C135.1 70.9665 134.533 70.8332 132.366 70.7665C130.966 70.7332 129.333 70.8665 128.733 71.0665ZM133.633 75.4999C134.2 75.7665 134.8 76.4999 135.133 77.3332C136.066 79.6999 136.133 79.6665 131.7 79.6665H127.7L128.033 78.5665C128.866 75.6332 131.3 74.2665 133.633 75.4999Z" fill="white"/>
<path d="M148.933 71.1332C148.033 71.3665 147.333 71.4332 147.333 71.2665C147.333 71.1332 146.367 70.9999 145.167 70.9999H143V82.1665V93.3332H145.5H148V84.7332V76.0999L148.8 75.7332C149.9 75.2332 152.5 74.8999 153.467 75.1332C154.8 75.4665 155 76.7999 155 85.3665V93.3332H157.533H160.067L159.933 84.5665C159.8 75.3999 159.633 74.2999 158.067 72.5332C156.5 70.7999 152.5 70.1665 148.933 71.1332Z" fill="white"/>
<path d="M188 71.0998C186.134 71.6998 183.9 74.1665 183.167 76.4998C182.2 79.4331 182.3 84.7998 183.334 87.4665C184.267 89.8665 186.3 91.9998 188.434 92.8331C191.367 93.9331 195.8 93.2331 198.467 91.2665C199.067 90.7998 199.034 90.7331 198.167 88.9665C197.667 87.9665 197.234 87.1331 197.167 87.0665C197.134 87.0331 196.2 87.4665 195.134 88.0331C190.934 90.2331 187.867 88.2998 187.434 83.0665C187.167 79.9665 187.8 77.1331 189.034 75.9331C189.867 75.0665 190.167 74.9665 191.734 75.0665L193.5 75.1665L193.6 77.4665L193.7 79.7331L194.934 79.5331C195.6 79.4331 196.567 79.3331 197.1 79.3331H198V75.6998V72.0998L195.834 71.3665C193.434 70.5998 190 70.4665 188 71.0998Z" fill="#C62828"/>
<path d="M204.933 70.9999C201.133 72.1333 199.333 76.1333 200.866 79.9666C201.533 81.6666 203.066 82.6666 206.666 83.8333C208.233 84.3333 209.766 84.9666 210.1 85.2666C210.8 85.8999 210.833 87.4333 210.166 88.1333C209 89.2999 205.466 89.0999 202.7 87.6666L201.4 87.0333L200.533 89.0666C199.533 91.3666 199.466 91.2666 202.333 92.3666C204.7 93.2666 208.8 93.5666 210.866 92.9999C214.1 92.0666 216 89.0666 215.5 85.4999C215.067 82.2333 213.833 81.1333 208.4 79.2999C204.9 78.1333 204.366 77.5333 205.6 75.9999C206.466 74.9333 208.666 74.7666 211.166 75.5999C212.266 75.9999 213.266 76.1999 213.4 76.0666C213.5 75.9333 213.9 75.0333 214.267 74.0666C215.033 72.0666 215.1 72.0999 212.033 71.1999C210.133 70.6333 206.466 70.5333 204.933 70.9999Z" fill="#C62828"/>
<path d="M162.733 79.7332C162.833 85.7665 163 88.7999 163.3 89.4999C163.9 90.9999 165.633 92.6332 167 92.9999C168.7 93.4665 171.966 93.3999 173.766 92.8665C175.1 92.4665 175.333 92.4665 175.333 92.8665C175.333 93.2332 175.866 93.3332 177.5 93.3332H179.666V82.1665V70.9999H177.166H174.666V79.4999V87.9999L173.766 88.3999C172.433 88.9332 168.8 88.9332 168.266 88.3999C167.933 88.0665 167.8 85.8999 167.733 79.4999L167.633 70.9999H165.133H162.6L162.733 79.7332Z" fill="white"/>
</g>
<path d="M66.0498 41.989C65.6591 42.1044 65.2757 42.2433 64.9017 42.4048C63.9848 41.1724 62.8799 40.0917 61.6275 39.2023C61.7807 38.8249 61.911 38.4385 62.0177 38.0453C60.8253 37.2206 59.5262 36.5617 58.1562 36.0869C54.1134 36.8666 50.4802 39.0602 47.9075 42.2748C48.1967 44.1647 48.8102 45.9905 49.721 47.6715C50.4025 47.5696 51.0747 47.4131 51.7312 47.2037C51.4588 46.63 51.2437 46.0307 51.089 45.4147C51.2643 45.4479 51.4418 45.4672 51.6201 45.4725C52.2168 47.1197 53.1772 48.6113 54.4297 49.8364C55.6822 51.0614 57.1947 51.9885 58.8548 52.5487C58.871 52.7324 58.8941 52.9089 58.9243 53.0783C58.3047 52.9334 57.6991 52.7342 57.1145 52.4831C56.9004 53.1446 56.7424 53.8228 56.6419 54.5108C58.3397 55.3839 60.1767 55.9546 62.0703 56.1973C65.2347 53.5604 67.3491 49.8764 68.0297 45.814C67.5441 44.456 66.8782 43.1695 66.0498 41.989V41.989ZM54.2834 45.2379C53.9508 44.8623 53.7766 44.3724 53.7974 43.8712C53.8182 43.3699 54.0324 42.8962 54.3951 42.5495C54.7323 42.177 55.2015 41.9508 55.703 41.9188C56.2044 41.8868 56.6985 42.0517 57.0803 42.3783C57.4153 42.7528 57.5911 43.2431 57.5702 43.7452C57.5494 44.2472 57.3336 44.7213 56.9687 45.0667C56.6314 45.4392 56.1622 45.6654 55.6608 45.6974C55.1594 45.7294 54.6652 45.5645 54.2834 45.2379V45.2379ZM59.0303 49.8808C58.6977 49.5052 58.5235 49.0153 58.5443 48.5141C58.5651 48.0128 58.7793 47.5391 59.142 47.1924C59.4792 46.8199 59.9484 46.5937 60.4499 46.5617C60.9513 46.5297 61.4454 46.6946 61.8272 47.0212C62.1647 47.3945 62.342 47.8854 62.3211 48.3882C62.3002 48.891 62.0828 49.3655 61.7156 49.7096C61.3797 50.0843 60.9102 50.3122 60.408 50.3443C59.9057 50.3763 59.411 50.2098 59.0303 49.8808V49.8808Z" fill="white"/>
<mask id="mask0" style="mask-type:alpha" maskUnits="userSpaceOnUse" x="3" y="0" width="85" height="163">
<path d="M3.5 162.5L61 0H88L30.5 162.5H3.5Z" fill="#7289DA"/>
</mask>
<g mask="url(#mask0)">
<path d="M35.7048 81.1398C35.711 82.0762 35.7736 83.0113 35.8923 83.9402C32.5865 85.1807 29.4962 86.933 26.7345 89.1331C25.9984 88.5544 25.228 88.0206 24.4276 87.5345C21.8467 89.6433 19.5645 92.0931 17.6436 94.8166C16.7918 104.242 19.3238 113.664 24.786 121.392C29.1444 121.957 33.5674 121.764 37.8601 120.823C38.0688 119.253 38.1513 117.668 38.1067 116.085C36.6661 116.321 35.2056 116.415 33.7465 116.364C33.9314 115.998 34.0871 115.618 34.2121 115.228C38.2304 114.959 42.1362 113.787 45.6394 111.801C49.1426 109.814 52.1531 107.064 54.4472 103.754C54.8632 103.835 55.2678 103.896 55.6611 103.938C54.9467 105.214 54.1212 106.425 53.1944 107.556C54.5191 108.45 55.9166 109.231 57.3721 109.891C60.3814 106.696 62.8113 103.003 64.553 98.9747C60.7434 90.3067 53.9529 83.2915 45.4135 79.2018C42.105 79.4098 38.8396 80.0616 35.7048 81.1398V81.1398ZM35.3896 109.196C34.3483 109.692 33.1555 109.765 32.0616 109.4C30.9677 109.034 30.0578 108.26 29.5229 107.238C28.9149 106.256 28.7139 105.076 28.9626 103.948C29.2112 102.82 29.8899 101.834 30.8544 101.198C31.8947 100.697 33.0897 100.621 34.1852 100.986C35.2808 101.352 36.1905 102.131 36.7211 103.156C37.3291 104.138 37.5301 105.319 37.2814 106.447C37.0328 107.574 36.3541 108.561 35.3896 109.196V109.196ZM48.6664 101.668C47.6251 102.163 46.4323 102.236 45.3384 101.871C44.2445 101.506 43.3345 100.731 42.7996 99.7096C42.1917 98.7276 41.9907 97.5472 42.2393 96.4193C42.4879 95.2915 43.1666 94.305 44.1311 93.6697C45.1705 93.1621 46.3677 93.0829 47.4649 93.4491C48.5621 93.8154 49.4717 94.5977 49.9979 95.6278C50.6117 96.6082 50.8161 97.7904 50.5671 98.92C50.3181 100.05 49.6356 101.036 48.6664 101.668V101.668Z" fill="white"/>
</g>
<mask id="mask1" style="mask-type:alpha" maskUnits="userSpaceOnUse" x="3" y="0" width="85" height="163">
<path d="M3.5 162.5L61 0H88L30.5 162.5H3.5Z" fill="#7289DA"/>
</mask>
<g mask="url(#mask1)">
<path d="M35.7048 81.1398C35.711 82.0762 35.7736 83.0113 35.8923 83.9402C32.5865 85.1807 29.4962 86.933 26.7345 89.1331C25.9984 88.5544 25.228 88.0206 24.4276 87.5345C21.8467 89.6433 19.5645 92.0931 17.6436 94.8166C16.7918 104.242 19.3238 113.664 24.786 121.392C29.1444 121.957 33.5674 121.764 37.8601 120.823C38.0688 119.253 38.1513 117.668 38.1067 116.085C36.6661 116.321 35.2056 116.415 33.7465 116.364C33.9314 115.998 34.0871 115.618 34.2121 115.228C38.2304 114.959 42.1362 113.787 45.6394 111.801C49.1426 109.814 52.1531 107.064 54.4472 103.754C54.8632 103.835 55.2678 103.896 55.6611 103.938C54.9467 105.214 54.1212 106.425 53.1944 107.556C54.5191 108.45 55.9166 109.231 57.3721 109.891C60.3814 106.696 62.8113 103.003 64.553 98.9747C60.7434 90.3067 53.9529 83.2915 45.4135 79.2018C42.105 79.4098 38.8396 80.0616 35.7048 81.1398V81.1398ZM35.3896 109.196C34.3483 109.692 33.1555 109.765 32.0616 109.4C30.9677 109.034 30.0578 108.26 29.5229 107.238C28.9149 106.256 28.7139 105.076 28.9626 103.948C29.2112 102.82 29.8899 101.834 30.8544 101.198C31.8947 100.697 33.0897 100.621 34.1852 100.986C35.2808 101.352 36.1905 102.131 36.7211 103.156C37.3291 104.138 37.5301 105.319 37.2814 106.447C37.0328 107.574 36.3541 108.561 35.3896 109.196V109.196ZM48.6664 101.668C47.6251 102.163 46.4323 102.236 45.3384 101.871C44.2445 101.506 43.3345 100.731 42.7996 99.7096C42.1917 98.7276 41.9907 97.5472 42.2393 96.4193C42.4879 95.2915 43.1666 94.305 44.1311 93.6697C45.1705 93.1621 46.3677 93.0829 47.4649 93.4491C48.5621 93.8154 49.4717 94.5977 49.9979 95.6278C50.6117 96.6082 50.8161 97.7904 50.5671 98.92C50.3181 100.05 49.6356 101.036 48.6664 101.668V101.668Z" fill="white"/>
</g>
<path d="M246 0L303.5 162.5H330.5L273 0H246Z" fill="#7289DA"/>
<path d="M308.55 120.511C308.159 120.396 307.776 120.257 307.402 120.095C306.485 121.328 305.38 122.408 304.127 123.298C304.281 123.675 304.411 124.062 304.518 124.455C303.325 125.279 302.026 125.938 300.656 126.413C296.613 125.633 292.98 123.44 290.407 120.225C290.697 118.335 291.31 116.51 292.221 114.828C292.902 114.93 293.575 115.087 294.231 115.296C293.959 115.87 293.744 116.469 293.589 117.085C293.764 117.052 293.942 117.033 294.12 117.028C294.717 115.38 295.677 113.889 296.93 112.664C298.182 111.439 299.695 110.511 301.355 109.951C301.371 109.768 301.394 109.591 301.424 109.422C300.805 109.567 300.199 109.766 299.614 110.017C299.4 109.355 299.242 108.677 299.142 107.989C300.84 107.116 302.677 106.545 304.57 106.303C307.735 108.94 309.849 112.624 310.53 116.686C310.044 118.044 309.378 119.33 308.55 120.511V120.511ZM296.783 117.262C296.451 117.638 296.277 118.128 296.297 118.629C296.318 119.13 296.532 119.604 296.895 119.951C297.232 120.323 297.702 120.549 298.203 120.581C298.704 120.613 299.199 120.448 299.58 120.122C299.915 119.747 300.091 119.257 300.07 118.755C300.049 118.253 299.834 117.779 299.469 117.433C299.131 117.061 298.662 116.835 298.161 116.803C297.659 116.771 297.165 116.935 296.783 117.262V117.262ZM301.53 112.619C301.198 112.995 301.024 113.485 301.044 113.986C301.065 114.487 301.279 114.961 301.642 115.308C301.979 115.68 302.448 115.906 302.95 115.938C303.451 115.97 303.945 115.805 304.327 115.479C304.665 115.105 304.842 114.615 304.821 114.112C304.8 113.609 304.583 113.134 304.216 112.79C303.88 112.416 303.41 112.188 302.908 112.156C302.406 112.124 301.911 112.29 301.53 112.619V112.619Z" fill="white"/>
<mask id="mask2" style="mask-type:alpha" maskUnits="userSpaceOnUse" x="246" y="0" width="85" height="163">
<path d="M246 0L303.5 162.5H330.5L273 0H246Z" fill="#7289DA"/>
</mask>
<g mask="url(#mask2)">
<path d="M278.205 81.3602C278.211 80.4238 278.274 79.4887 278.392 78.5598C275.086 77.3193 271.996 75.567 269.235 73.3669C268.498 73.9456 267.728 74.4794 266.928 74.9655C264.347 72.8567 262.065 70.4069 260.144 67.6834C259.292 58.2576 261.824 48.8365 267.286 41.1076C271.644 40.5432 276.067 40.736 280.36 41.6774C280.569 43.2475 280.651 44.8318 280.607 46.4151C279.166 46.1787 277.706 46.0852 276.247 46.1358C276.431 46.5017 276.587 46.8815 276.712 47.2719C280.73 47.5413 284.636 48.7128 288.139 50.6993C291.643 52.6858 294.653 55.4362 296.947 58.7461C297.363 58.6649 297.768 58.6037 298.161 58.5625C297.447 57.2863 296.621 56.0755 295.694 54.9441C297.019 54.0502 298.417 53.2693 299.872 52.6095C302.881 55.8035 305.311 59.4974 307.053 63.5253C303.243 72.1933 296.453 79.2085 287.913 83.2982C284.605 83.0902 281.34 82.4384 278.205 81.3602V81.3602ZM277.89 53.3037C276.848 52.8082 275.656 52.7353 274.562 53.1004C273.468 53.4655 272.558 54.2402 272.023 55.2619C271.415 56.2439 271.214 57.4242 271.463 58.5521C271.711 59.68 272.39 60.6664 273.354 61.3018C274.395 61.8033 275.59 61.8793 276.685 61.5136C277.781 61.1479 278.691 60.3695 279.221 59.3436C279.829 58.3616 280.03 57.1813 279.781 56.0534C279.533 54.9255 278.854 53.9391 277.89 53.3037V53.3037ZM291.166 60.8323C290.125 60.3367 288.932 60.2639 287.838 60.629C286.744 60.9941 285.835 61.7688 285.3 62.7904C284.692 63.7724 284.491 64.9528 284.739 66.0807C284.988 67.2085 285.667 68.195 286.631 68.8303C287.671 69.3379 288.868 69.4171 289.965 69.0509C291.062 68.6846 291.972 67.9023 292.498 66.8722C293.112 65.8918 293.316 64.7096 293.067 63.58C292.818 62.4504 292.136 61.4637 291.166 60.8323V60.8323Z" fill="white"/>
</g>
<rect width="117" height="17" transform="translate(111 110)" fill="white"/>
<path d="M120.568 114.047L123.125 121.266L125.668 114.047H128.361V124H126.304V121.279L126.509 116.583L123.822 124H122.414L119.734 116.59L119.939 121.279V124H117.889V114.047H120.568ZM136.141 119.687H132.203V122.353H136.824V124H130.152V114.047H136.811V115.708H132.203V118.08H136.141V119.687ZM140.707 114.047L143.264 121.266L145.807 114.047H148.5V124H146.442V121.279L146.647 116.583L143.961 124H142.553L139.873 116.59L140.078 121.279V124H138.027V114.047H140.707ZM150.291 124V114.047H153.777C154.985 114.047 155.901 114.279 156.525 114.744C157.15 115.204 157.462 115.881 157.462 116.774C157.462 117.262 157.337 117.693 157.086 118.066C156.835 118.436 156.487 118.707 156.04 118.88C156.55 119.007 156.951 119.265 157.243 119.652C157.539 120.04 157.688 120.514 157.688 121.074C157.688 122.031 157.382 122.756 156.771 123.248C156.161 123.74 155.29 123.991 154.16 124H150.291ZM152.342 119.666V122.353H154.099C154.582 122.353 154.958 122.239 155.227 122.011C155.5 121.778 155.637 121.459 155.637 121.054C155.637 120.142 155.165 119.68 154.222 119.666H152.342ZM152.342 118.217H153.859C154.894 118.199 155.411 117.786 155.411 116.979C155.411 116.528 155.279 116.205 155.015 116.009C154.755 115.808 154.342 115.708 153.777 115.708H152.342V118.217ZM165.221 119.687H161.283V122.353H165.904V124H159.232V114.047H165.891V115.708H161.283V118.08H165.221V119.687ZM170.792 120.356H169.158V124H167.107V114.047H170.806C171.981 114.047 172.888 114.309 173.526 114.833C174.164 115.357 174.483 116.098 174.483 117.055C174.483 117.734 174.335 118.301 174.039 118.757C173.747 119.208 173.303 119.568 172.706 119.837L174.859 123.904V124H172.658L170.792 120.356ZM169.158 118.695H170.812C171.327 118.695 171.726 118.565 172.009 118.306C172.291 118.041 172.433 117.679 172.433 117.219C172.433 116.749 172.298 116.38 172.029 116.111C171.765 115.842 171.357 115.708 170.806 115.708H169.158V118.695ZM181.21 121.389C181.21 121.001 181.073 120.705 180.8 120.5C180.526 120.29 180.034 120.072 179.323 119.844C178.612 119.611 178.049 119.383 177.635 119.16C176.505 118.549 175.939 117.727 175.939 116.692C175.939 116.155 176.09 115.676 176.391 115.257C176.696 114.833 177.131 114.503 177.696 114.266C178.266 114.029 178.904 113.91 179.61 113.91C180.321 113.91 180.955 114.04 181.511 114.3C182.067 114.555 182.497 114.917 182.803 115.387C183.113 115.856 183.268 116.389 183.268 116.986H181.217C181.217 116.531 181.073 116.177 180.786 115.927C180.499 115.672 180.096 115.544 179.576 115.544C179.075 115.544 178.685 115.651 178.407 115.865C178.129 116.075 177.99 116.353 177.99 116.699C177.99 117.023 178.152 117.294 178.476 117.513C178.804 117.731 179.285 117.937 179.918 118.128C181.085 118.479 181.935 118.914 182.468 119.434C183.001 119.953 183.268 120.6 183.268 121.375C183.268 122.236 182.942 122.913 182.29 123.405C181.638 123.893 180.761 124.137 179.658 124.137C178.893 124.137 178.195 123.998 177.566 123.72C176.938 123.437 176.457 123.052 176.124 122.564C175.796 122.077 175.632 121.512 175.632 120.869H177.689C177.689 121.967 178.346 122.517 179.658 122.517C180.146 122.517 180.526 122.419 180.8 122.223C181.073 122.022 181.21 121.744 181.21 121.389ZM191.833 120.356H190.199V124H188.148V114.047H191.847C193.022 114.047 193.929 114.309 194.567 114.833C195.205 115.357 195.524 116.098 195.524 117.055C195.524 117.734 195.376 118.301 195.08 118.757C194.788 119.208 194.344 119.568 193.747 119.837L195.9 123.904V124H193.699L191.833 120.356ZM190.199 118.695H191.854C192.368 118.695 192.767 118.565 193.05 118.306C193.332 118.041 193.474 117.679 193.474 117.219C193.474 116.749 193.339 116.38 193.07 116.111C192.806 115.842 192.398 115.708 191.847 115.708H190.199V118.695ZM205.266 119.249C205.266 120.229 205.092 121.088 204.746 121.826C204.4 122.564 203.903 123.134 203.256 123.535C202.613 123.936 201.875 124.137 201.041 124.137C200.216 124.137 199.48 123.938 198.833 123.542C198.186 123.146 197.685 122.58 197.329 121.847C196.974 121.108 196.794 120.261 196.789 119.304V118.812C196.789 117.832 196.965 116.97 197.315 116.228C197.671 115.48 198.17 114.908 198.812 114.512C199.46 114.111 200.198 113.91 201.027 113.91C201.857 113.91 202.593 114.111 203.235 114.512C203.882 114.908 204.382 115.48 204.732 116.228C205.088 116.97 205.266 117.829 205.266 118.805V119.249ZM203.188 118.798C203.188 117.754 203.001 116.961 202.627 116.419C202.253 115.877 201.72 115.605 201.027 115.605C200.339 115.605 199.808 115.874 199.435 116.412C199.061 116.945 198.872 117.729 198.867 118.764V119.249C198.867 120.265 199.054 121.054 199.428 121.614C199.801 122.175 200.339 122.455 201.041 122.455C201.729 122.455 202.258 122.186 202.627 121.648C202.996 121.106 203.183 120.318 203.188 119.283V118.798ZM208.807 122.353H213.161V124H206.756V114.047H208.807V122.353ZM220.332 119.687H216.395V122.353H221.016V124H214.344V114.047H221.002V115.708H216.395V118.08H220.332V119.687Z" fill="#FF5555"/>
<rect width="46" height="46" transform="translate(146 14)" fill="#37474F"/>
<circle cx="169" cy="37" r="22.75" stroke="black" stroke-width="0.5"/>
<g filter="url(#filter0_i)">
<path d="M183.498 34.3586L155.5 34.6417C154.119 34.6556 153.011 35.7862 153.025 37.1668L153.035 38.1668C153.049 39.5474 154.18 40.6553 155.561 40.6413L183.559 40.3582C184.94 40.3443 186.048 39.2137 186.034 37.8331L186.024 36.8332C186.01 35.4525 184.879 34.3446 183.498 34.3586Z" fill="white"/>
</g>
<path d="M183.498 34.3586L155.5 34.6417C154.119 34.6556 153.011 35.7862 153.025 37.1668L153.035 38.1668C153.049 39.5474 154.18 40.6553 155.561 40.6413L183.559 40.3582C184.94 40.3443 186.048 39.2137 186.034 37.8331L186.024 36.8332C186.01 35.4525 184.879 34.3446 183.498 34.3586Z" stroke="white"/>
<g filter="url(#filter1_i)">
<path d="M166.529 23.5V51.5C166.529 52.8807 167.649 54 169.029 54H170.029C171.41 54 172.529 52.8807 172.529 51.5V23.5C172.529 22.1193 171.41 21 170.029 21H169.029C167.649 21 166.529 22.1193 166.529 23.5Z" fill="url(#paint0_linear)"/>
</g>
<path d="M166.529 23.5V51.5C166.529 52.8807 167.649 54 169.029 54H170.029C171.41 54 172.529 52.8807 172.529 51.5V23.5C172.529 22.1193 171.41 21 170.029 21H169.029C167.649 21 166.529 22.1193 166.529 23.5Z" stroke="url(#paint1_linear)"/>
<g filter="url(#filter2_i)">
<path d="M158.002 29.0078L176.565 49.9699C177.481 51.0036 179.061 51.0995 180.094 50.1841L180.843 49.5212C181.877 48.6058 181.972 47.0258 181.057 45.9921L162.494 25.03C161.579 23.9963 159.999 23.9004 158.965 24.8158L158.216 25.4788C157.183 26.3942 157.087 27.9742 158.002 29.0078Z" fill="#FF5555"/>
</g>
<path d="M158.002 29.0078L176.565 49.9699C177.481 51.0036 179.061 51.0995 180.094 50.1841L180.843 49.5212C181.877 48.6058 181.972 47.0258 181.057 45.9921L162.494 25.03C161.579 23.9963 159.999 23.9004 158.965 24.8158L158.216 25.4788C157.183 26.3942 157.087 27.9742 158.002 29.0078Z" stroke="#FF5555"/>
<defs>
<filter id="filter0_i" x="152.495" y="33.8282" width="34.069" height="11.3434" filterUnits="userSpaceOnUse" color-interpolation-filters="sRGB">
<feFlood flood-opacity="0" result="BackgroundImageFix"/>
<feBlend mode="normal" in="SourceGraphic" in2="BackgroundImageFix" result="shape"/>
<feColorMatrix in="SourceAlpha" type="matrix" values="0 0 0 0 0 0 0 0 0 0 0 0 0 0 0 0 0 0 127 0" result="hardAlpha"/>
<feOffset dy="4"/>
<feGaussianBlur stdDeviation="2"/>
<feComposite in2="hardAlpha" operator="arithmetic" k2="-1" k3="1"/>
<feColorMatrix type="matrix" values="0 0 0 0 0 0 0 0 0 0 0 0 0 0 0 0 0 0 0.25 0"/>
<feBlend mode="normal" in2="shape" result="effect1_innerShadow"/>
</filter>
<filter id="filter1_i" x="166.029" y="20.5" width="7" height="38" filterUnits="userSpaceOnUse" color-interpolation-filters="sRGB">
<feFlood flood-opacity="0" result="BackgroundImageFix"/>
<feBlend mode="normal" in="SourceGraphic" in2="BackgroundImageFix" result="shape"/>
<feColorMatrix in="SourceAlpha" type="matrix" values="0 0 0 0 0 0 0 0 0 0 0 0 0 0 0 0 0 0 127 0" result="hardAlpha"/>
<feOffset dy="4"/>
<feGaussianBlur stdDeviation="2"/>
<feComposite in2="hardAlpha" operator="arithmetic" k2="-1" k3="1"/>
<feColorMatrix type="matrix" values="0 0 0 0 1 0 0 0 0 1 0 0 0 0 1 0 0 0 0.25 0"/>
<feBlend mode="normal" in2="shape" result="effect1_innerShadow"/>
</filter>
<filter id="filter2_i" x="155.639" y="22.4526" width="27.7815" height="34.0948" filterUnits="userSpaceOnUse" color-interpolation-filters="sRGB">
<feFlood flood-opacity="0" result="BackgroundImageFix"/>
<feBlend mode="normal" in="SourceGraphic" in2="BackgroundImageFix" result="shape"/>
<feColorMatrix in="SourceAlpha" type="matrix" values="0 0 0 0 0 0 0 0 0 0 0 0 0 0 0 0 0 0 127 0" result="hardAlpha"/>
<feOffset dy="4"/>
<feGaussianBlur stdDeviation="2"/>
<feComposite in2="hardAlpha" operator="arithmetic" k2="-1" k3="1"/>
<feColorMatrix type="matrix" values="0 0 0 0 0 0 0 0 0 0 0 0 0 0 0 0 0 0 0.25 0"/>
<feBlend mode="normal" in2="shape" result="effect1_innerShadow"/>
</filter>
<linearGradient id="paint0_linear" x1="168.984" y1="37.5" x2="172.529" y2="37.5" gradientUnits="userSpaceOnUse">
<stop stop-color="#00FF75"/>
<stop offset="1" stop-color="#00A3FF"/>
</linearGradient>
<linearGradient id="paint1_linear" x1="168.984" y1="37.5" x2="172.529" y2="37.5" gradientUnits="userSpaceOnUse">
<stop stop-color="#00FF75"/>
<stop offset="1" stop-color="#00A3FF"/>
</linearGradient>
<clipPath id="clip0">
<rect width="116.333" height="36" fill="white" transform="translate(111 64)"/>
</clipPath>
</defs>
</svg>
