<svg width="11" height="10" viewBox="0 0 11 10" fill="none" xmlns="http://www.w3.org/2000/svg">
<path id="Vector" d="M5.3307 3.7812C5.74149 3.78189 6.13525 3.94538 6.42572 4.23585C6.7162 4.52633 6.87969 4.92009 6.88038 5.33088V5.33237C6.88036 5.58724 6.81747 5.83817 6.6973 6.06293C6.57712 6.28769 6.40337 6.47934 6.19143 6.62091C5.97948 6.76247 5.7359 6.84957 5.48225 6.87449C5.2286 6.89942 4.97272 6.8614 4.73728 6.7638C4.50183 6.6662 4.2941 6.51204 4.13247 6.31497C3.97084 6.1179 3.86032 5.88401 3.81069 5.63402C3.76105 5.38403 3.77384 5.12566 3.84793 4.88179C3.92201 4.63793 4.0551 4.4161 4.2354 4.23596C4.37437 4.09175 4.54104 3.97711 4.72541 3.8989C4.90978 3.82069 5.10804 3.78053 5.30831 3.78083H5.33182H5.3307V3.7812ZM9.11872 1.54286H9.13924C9.51304 1.54286 9.85103 1.6973 10.092 1.94613L10.0924 1.9465C10.2203 2.07009 10.322 2.21819 10.3913 2.38197C10.4607 2.54574 10.4963 2.72181 10.4961 2.89967V2.9213V2.92018V7.74158C10.496 8.10684 10.3508 8.45711 10.0925 8.71539C9.83425 8.97367 9.48398 9.11881 9.11872 9.11891H1.54267C1.17741 9.11881 0.827141 8.97367 0.568864 8.71539C0.310586 8.45711 0.165443 8.10684 0.165344 7.74158L0.165344 2.92056V2.90004C0.165344 2.52624 0.31979 2.18825 0.568619 1.94725L0.568992 1.94688C0.692576 1.81898 0.840682 1.71731 1.00445 1.64795C1.16823 1.5786 1.3443 1.54298 1.52215 1.54323H1.54379H1.54267H2.74765L3.02185 0.81129C3.10093 0.62215 3.22964 0.467331 3.39229 0.358771L3.39602 0.356533C3.5565 0.235786 3.75108 0.168926 3.95188 0.165527L6.70765 0.165527C6.90979 0.168936 7.10561 0.236475 7.26687 0.358398L7.26463 0.356533C7.43064 0.467331 7.55972 0.62215 7.63619 0.804575L7.6388 0.81129L7.913 1.54323L9.11872 1.54286ZM5.3307 7.74158L5.36465 7.74195C5.67601 7.74233 5.98424 7.67989 6.2709 7.55835C6.55756 7.43682 6.81675 7.25869 7.03296 7.03463L7.0337 7.03389C7.2579 6.81761 7.43614 6.55831 7.55774 6.27152C7.67934 5.98473 7.74181 5.67634 7.7414 5.36483L7.74102 5.32902V5.33088L7.7414 5.29656C7.74178 4.9852 7.67933 4.67696 7.5578 4.3903C7.43626 4.10364 7.25813 3.84445 7.03408 3.62825L7.03333 3.6275C6.59797 3.19028 5.99586 2.91981 5.33032 2.91981C4.66479 2.91981 4.06268 3.19028 3.62732 3.62713C3.39879 3.84759 3.21807 4.11272 3.09638 4.40602C2.9747 4.69931 2.91466 5.01451 2.92 5.332V5.33014L2.91963 5.3652C2.91963 6.01992 3.19047 6.61121 3.6262 7.03314L3.62694 7.03389C3.84322 7.25808 4.10252 7.43632 4.38931 7.55792C4.67611 7.67953 4.98449 7.74199 5.296 7.74158L5.33219 7.74121H5.33032L5.3307 7.74158Z" fill="white"/>
</svg>
