<svg width="23" height="17" viewBox="0 0 23 17" fill="none" xmlns="http://www.w3.org/2000/svg">
<g id="card-vector">
<path d="M0.267212 3.32344C0.267212 2.5438 0.576925 1.79609 1.12822 1.24479C1.67951 0.693502 2.42722 0.383789 3.20687 0.383789H19.375C20.1546 0.383789 20.9023 0.693502 21.4536 1.24479C22.0049 1.79609 22.3146 2.5438 22.3146 3.32344V5.52819H0.267212V3.32344Z" fill="url(#paint0_linear)"/>
<path d="M0.267212 6.99801H22.3146V13.6122C22.3146 14.3919 22.0049 15.1396 21.4536 15.6909C20.9023 16.2422 20.1546 16.5519 19.375 16.5519H3.20687C2.42722 16.5519 1.67951 16.2422 1.12822 15.6909C0.576925 15.1396 0.267212 14.3919 0.267212 13.6122V6.99801ZM16.4353 12.8773C16.2404 12.8773 16.0535 12.9548 15.9157 13.0926C15.7778 13.2304 15.7004 13.4173 15.7004 13.6122C15.7004 13.8071 15.7778 13.9941 15.9157 14.1319C16.0535 14.2697 16.2404 14.3472 16.4353 14.3472H19.375C19.5699 14.3472 19.7568 14.2697 19.8946 14.1319C20.0325 13.9941 20.1099 13.8071 20.1099 13.6122C20.1099 13.4173 20.0325 13.2304 19.8946 13.0926C19.7568 12.9548 19.5699 12.8773 19.375 12.8773H16.4353Z" fill="url(#paint1_linear)"/>
</g>
<defs>
<linearGradient id="paint0_linear" x1="11.2909" y1="6.99801" x2="11.2909" y2="16.5519" gradientUnits="userSpaceOnUse">
<stop stop-color="#00FF75"/>
<stop offset="1" stop-color="#00A3FF"/>
</linearGradient>
<linearGradient id="paint1_linear" x1="11.2909" y1="6.99801" x2="11.2909" y2="16.5519" gradientUnits="userSpaceOnUse">
<stop stop-color="#00FF75"/>
<stop offset="1" stop-color="#00A3FF"/>
</linearGradient>
</defs>
</svg>
