<svg width="40" height="40" viewBox="0 0 40 40" fill="none" xmlns="http://www.w3.org/2000/svg">
<g id="Vector">
<path fill-rule="evenodd" clip-rule="evenodd" d="M34.1488 5.84873C26.3492 -1.94832 13.6483 -1.95083 5.84873 5.84873C-1.95083 13.6508 -1.94832 26.3492 5.84873 34.1513C13.6483 41.9483 26.3467 41.9508 34.1488 34.1513C41.9508 26.3467 41.9483 13.6508 34.1488 5.84873ZM8.92994 31.0701C2.81515 24.9578 2.81013 15.0172 8.91239 8.9149C15.0147 2.81014 24.9553 2.81766 31.0701 8.92994C37.1823 15.0422 37.1848 24.9853 31.0851 31.0876C24.9778 37.1899 15.0397 37.1823 8.92994 31.0701Z" fill="#FF0000"/>
<path fill-rule="evenodd" clip-rule="evenodd" d="M25.4191 27.6404C25.0615 27.6515 24.7133 27.5249 24.4463 27.2869L20.0163 22.8618L15.7668 27.1114C15.4709 27.3607 15.0929 27.4912 14.7063 27.4774C14.4226 27.4739 14.1425 27.4133 13.8827 27.2992C13.623 27.185 13.3889 27.0197 13.1945 26.813C12.6404 26.2615 12.5176 25.7149 12.5151 25.3589C12.4945 24.9913 12.6208 24.6306 12.8661 24.3561L17.1883 20.0313L12.9764 15.8244C12.5953 15.4409 12.2769 14.2525 13.2772 13.2547C13.8413 12.6906 14.3954 12.5727 14.7639 12.5727C15.2227 12.5727 15.5662 12.7533 15.7342 12.9262L20.0163 17.2033L24.2683 12.9513C24.5651 12.7018 24.9439 12.5714 25.3313 12.5853C25.6157 12.5884 25.8965 12.6492 26.1567 12.7638C26.417 12.8784 26.6513 13.0445 26.8456 13.2522C27.7933 14.2024 27.6028 15.2829 27.174 15.7091L22.8468 20.0364L27.2016 24.3887C27.3696 24.5591 27.5677 24.9402 27.5677 25.4517C27.565 25.7351 27.5047 26.0151 27.3905 26.2746C27.2763 26.534 27.1105 26.7675 26.9033 26.9609C26.3392 27.5225 25.7876 27.6404 25.4191 27.6404Z" fill="#FF0000"/>
</g>
</svg>
