<svg width="16" height="16" viewBox="0 0 16 16" fill="none" xmlns="http://www.w3.org/2000/svg">
<path id="exclamation-vector" d="M9.049 0.435C8.469 -0.145 7.529 -0.145 6.949 0.435L0.435 6.95C-0.145 7.53 -0.145 8.469 0.435 9.048L6.951 15.564C7.531 16.144 8.47 16.144 9.049 15.564L15.565 9.048C16.145 8.468 16.145 7.529 15.565 6.95L9.049 0.435ZM7.999 4C8.534 4 8.953 4.462 8.899 4.995L8.549 8.502C8.53724 8.63977 8.4742 8.76811 8.37236 8.86164C8.27051 8.95516 8.13727 9.00705 7.999 9.00705C7.86073 9.00705 7.72749 8.95516 7.62564 8.86164C7.5238 8.76811 7.46076 8.63977 7.449 8.502L7.099 4.995C7.08643 4.86923 7.10034 4.74223 7.13984 4.62217C7.17935 4.5021 7.24356 4.39165 7.32834 4.29791C7.41313 4.20418 7.51661 4.12924 7.63212 4.07793C7.74763 4.02662 7.87261 4.00007 7.999 4V4ZM8.001 10C8.26622 10 8.52057 10.1054 8.70811 10.2929C8.89564 10.4804 9.001 10.7348 9.001 11C9.001 11.2652 8.89564 11.5196 8.70811 11.7071C8.52057 11.8946 8.26622 12 8.001 12C7.73578 12 7.48143 11.8946 7.29389 11.7071C7.10636 11.5196 7.001 11.2652 7.001 11C7.001 10.7348 7.10636 10.4804 7.29389 10.2929C7.48143 10.1054 7.73578 10 8.001 10Z" fill="#FF0000"/>
</svg>
