<svg width="18" height="18" viewBox="0 0 18 18" fill="none" xmlns="http://www.w3.org/2000/svg">
<path fill-rule="evenodd" clip-rule="evenodd" d="M15.0598 2.57933C11.6202 -0.859224 6.01899 -0.86033 2.57933 2.57933C-0.86033 6.02009 -0.859224 11.6202 2.57933 15.0609C6.01899 18.4995 11.6191 18.5006 15.0598 15.0609C18.5006 11.6191 18.4995 6.02009 15.0598 2.57933ZM3.93817 13.7021C1.2415 11.0066 1.23929 6.62267 3.93043 3.93153C6.62156 1.23929 11.0054 1.24261 13.7021 3.93817C16.3977 6.63373 16.3988 11.0187 13.7087 13.7099C11.0154 16.401 6.63262 16.3977 3.93817 13.7021Z" fill="#FF0000"/>
<path fill-rule="evenodd" clip-rule="evenodd" d="M11.21 12.1896C11.0523 12.1945 10.8987 12.1387 10.781 12.0337L8.82732 10.0822L6.95326 11.9563C6.82279 12.0663 6.65609 12.1238 6.48557 12.1177C6.36045 12.1162 6.23693 12.0895 6.12238 12.0391C6.00783 11.9888 5.9046 11.9159 5.81887 11.8247C5.57452 11.5815 5.52034 11.3405 5.51924 11.1835C5.51018 11.0213 5.56586 10.8623 5.67403 10.7412L7.58016 8.83396L5.72268 6.97869C5.55462 6.80952 5.4142 6.28545 5.85535 5.8454C6.10412 5.59663 6.34847 5.54467 6.511 5.54467C6.71333 5.54467 6.86481 5.62427 6.93888 5.70056L8.82732 7.58679L10.7025 5.71162C10.8334 5.60158 11.0004 5.54406 11.1713 5.5502C11.2967 5.55159 11.4205 5.57837 11.5353 5.62891C11.6501 5.67946 11.7534 5.75273 11.8391 5.8443C12.257 6.26334 12.173 6.73987 11.9839 6.92783L10.0756 8.83617L11.9961 10.7556C12.0702 10.8308 12.1575 10.9988 12.1575 11.2244C12.1564 11.3494 12.1298 11.4728 12.0794 11.5873C12.029 11.7017 11.9559 11.8047 11.8645 11.89C11.6158 12.1376 11.3725 12.1896 11.21 12.1896Z" fill="#FF0000"/>
</svg>
