<svg width="18" height="18" viewBox="0 0 18 18" fill="none" xmlns="http://www.w3.org/2000/svg">
<path d="M8.81897 0C7.07474 0 5.36968 0.517223 3.91941 1.48626C2.46914 2.4553 1.33879 3.83264 0.671308 5.44409C0.00382112 7.05555 -0.170824 8.82875 0.169458 10.5395C0.50974 12.2502 1.34966 13.8216 2.58302 15.0549C3.81637 16.2883 5.38776 17.1282 7.09847 17.4685C8.80918 17.8088 10.5824 17.6341 12.1938 16.9666C13.8053 16.2991 15.1826 15.1688 16.1517 13.7185C17.1207 12.2682 17.6379 10.5632 17.6379 8.81896C17.6379 7.66084 17.4098 6.51406 16.9666 5.44409C16.5234 4.37413 15.8738 3.40193 15.0549 2.58301C14.236 1.7641 13.2638 1.1145 12.1938 0.671304C11.1239 0.228109 9.97709 0 8.81897 0V0ZM12.6111 6.71123L8.58085 12.0026C8.4987 12.1093 8.39319 12.1958 8.27242 12.2554C8.15166 12.3151 8.01884 12.3462 7.88416 12.3465C7.7502 12.3473 7.61784 12.3175 7.49713 12.2594C7.37641 12.2013 7.27051 12.1165 7.18746 12.0114L5.03563 9.26873C4.96441 9.17724 4.9119 9.07261 4.88111 8.96083C4.85032 8.84905 4.84185 8.73229 4.85618 8.61723C4.87051 8.50218 4.90736 8.39107 4.96463 8.29025C5.0219 8.18944 5.09847 8.10089 5.18996 8.02967C5.37474 7.88582 5.60909 7.82127 5.84146 7.85021C5.95652 7.86454 6.06762 7.9014 6.16844 7.95867C6.26926 8.01594 6.3578 8.09251 6.42903 8.184L7.86652 10.0183L11.2001 5.60886C11.2707 5.51621 11.3589 5.43838 11.4597 5.37982C11.5604 5.32126 11.6717 5.28311 11.7871 5.26755C11.9026 5.25199 12.02 5.25932 12.1326 5.28914C12.2453 5.31895 12.3509 5.37065 12.4436 5.4413C12.5362 5.51195 12.614 5.60015 12.6726 5.70087C12.7312 5.8016 12.7693 5.91287 12.7849 6.02833C12.8004 6.1438 12.7931 6.2612 12.7633 6.37383C12.7335 6.48647 12.6818 6.59212 12.6111 6.68477V6.71123Z" fill="#1CC700"/>
</svg>
