<svg width="19" height="20" viewBox="0 0 19 20" fill="none" xmlns="http://www.w3.org/2000/svg">
<path id="Vector" d="M14.4643 5.71429V5.17857C14.4632 3.82764 13.9349 2.53047 12.9918 1.56324C12.0486 0.596017 10.7652 0.0351311 9.41473 0H9.1567C7.80622 0.0351311 6.52279 0.596017 5.57966 1.56324C4.63653 2.53047 4.1082 3.82764 4.10714 5.17857V5.71429H0.178571C0.178571 5.71429 0.085791 5.7331 0.0523024 5.76659C0.0188138 5.80008 0 5.8455 0 5.89286V19.2857C0 19.4752 0.0752549 19.6568 0.209209 19.7908C0.343164 19.9247 0.524845 20 0.714286 20H17.8571C18.0466 20 18.2283 19.9247 18.3622 19.7908C18.4962 19.6568 18.5714 19.4752 18.5714 19.2857V5.89286C18.5714 5.8455 18.5526 5.80008 18.5191 5.76659C18.4856 5.7331 18.4402 5.71429 18.3929 5.71429H14.4643ZM12.6786 5.71429H5.89286V5.22321C5.89286 3.35536 7.38438 1.80536 9.25223 1.78571C9.70047 1.78177 10.1451 1.86659 10.5604 2.03528C10.9756 2.20397 11.3534 2.45321 11.672 2.76861C11.9905 3.08401 12.2434 3.45935 12.4162 3.87297C12.5889 4.28659 12.6781 4.73032 12.6786 5.17857V5.71429Z" fill="#FF5555"/>
</svg>
