<svg width="39" height="28" viewBox="0 0 39 28" fill="none" xmlns="http://www.w3.org/2000/svg">
<path d="M19.846 10.692C20.9471 10.6939 22.0027 11.1321 22.7813 11.9107C23.5599 12.6893 23.9981 13.7449 24 14.846V14.85C23.9999 15.5332 23.8314 16.2058 23.5092 16.8083C23.1871 17.4108 22.7213 17.9245 22.1532 18.304C21.5851 18.6834 20.9322 18.9169 20.2522 18.9837C19.5723 19.0505 18.8864 18.9486 18.2553 18.687C17.6242 18.4254 17.0673 18.0122 16.6341 17.4839C16.2008 16.9557 15.9046 16.3287 15.7715 15.6586C15.6385 14.9885 15.6728 14.2959 15.8714 13.6422C16.0699 12.9885 16.4267 12.3939 16.91 11.911C17.2825 11.5245 17.7293 11.2171 18.2235 11.0075C18.7177 10.7979 19.2492 10.6902 19.786 10.691H19.849H19.846V10.692ZM30 4.692H30.055C31.057 4.692 31.963 5.106 32.609 5.773L32.61 5.774C32.9528 6.10527 33.2254 6.50228 33.4113 6.94128C33.5972 7.38028 33.6927 7.85226 33.692 8.329V8.387V8.384V21.308C33.6917 22.2871 33.3027 23.226 32.6103 23.9183C31.918 24.6107 30.9791 24.9997 30 25H9.692C8.7129 24.9997 7.77398 24.6107 7.08165 23.9183C6.38933 23.226 6.00027 22.2871 6 21.308V8.385V8.33C6 7.328 6.414 6.422 7.081 5.776L7.082 5.775C7.41327 5.43216 7.81028 5.15963 8.24928 4.97372C8.68828 4.78781 9.16026 4.69234 9.637 4.693H9.695H9.692H12.922L13.657 2.731C13.869 2.224 14.214 1.809 14.65 1.518L14.66 1.512C15.0902 1.18833 15.6117 1.00911 16.15 1H23.537C24.0788 1.00914 24.6037 1.19018 25.036 1.517L25.03 1.512C25.475 1.809 25.821 2.224 26.026 2.713L26.033 2.731L26.768 4.693L30 4.692ZM19.846 21.308L19.937 21.309C20.7716 21.31 21.5979 21.1426 22.3663 20.8169C23.1347 20.4911 23.8295 20.0136 24.409 19.413L24.411 19.411C25.012 18.8313 25.4897 18.1362 25.8157 17.3674C26.1417 16.5987 26.3091 15.772 26.308 14.937L26.307 14.841V14.846L26.308 14.754C26.309 13.9194 26.1416 13.0931 25.8159 12.3247C25.4901 11.5563 25.0126 10.8615 24.412 10.282L24.41 10.28C23.243 9.108 21.629 8.383 19.845 8.383C18.061 8.383 16.447 9.108 15.28 10.279C14.6674 10.87 14.183 11.5807 13.8568 12.3668C13.5306 13.153 13.3697 13.9979 13.384 14.849V14.844L13.383 14.938C13.383 16.693 14.109 18.278 15.277 19.409L15.279 19.411C15.8587 20.012 16.5538 20.4897 17.3226 20.8157C18.0913 21.1417 18.918 21.3091 19.753 21.308L19.85 21.307H19.845L19.846 21.308Z" fill="#37474F"/>
<path d="M2 2L37.5 26.5" stroke="#C62828" stroke-width="2.5" stroke-linecap="round"/>
</svg>
