<svg width="29" height="21" viewBox="0 0 29 21" fill="none" xmlns="http://www.w3.org/2000/svg">
<g id="card-vector">
<path d="M0 3.96325C0 2.9603 0.398418 1.99844 1.10761 1.28925C1.8168 0.580059 2.77866 0.181641 3.78161 0.181641H24.5805C25.5834 0.181641 26.5453 0.580059 27.2545 1.28925C27.9636 1.99844 28.3621 2.9603 28.3621 3.96325V6.79946H0V3.96325Z" fill="white"/>
<path d="M0 8.69026H28.3621V17.1989C28.3621 18.2018 27.9636 19.1637 27.2545 19.8729C26.5453 20.5821 25.5834 20.9805 24.5805 20.9805H3.78161C2.77866 20.9805 1.8168 20.5821 1.10761 19.8729C0.398418 19.1637 0 18.2018 0 17.1989V8.69026ZM20.7988 16.2535C20.5481 16.2535 20.3076 16.3531 20.1303 16.5304C19.953 16.7077 19.8534 16.9481 19.8534 17.1989C19.8534 17.4496 19.953 17.6901 20.1303 17.8674C20.3076 18.0447 20.5481 18.1443 20.7988 18.1443H24.5805C24.8312 18.1443 25.0717 18.0447 25.249 17.8674C25.4263 17.6901 25.5259 17.4496 25.5259 17.1989C25.5259 16.9481 25.4263 16.7077 25.249 16.5304C25.0717 16.3531 24.8312 16.2535 24.5805 16.2535H20.7988Z" fill="white"/>
</g>
</svg>
