<svg width="956" height="223" viewBox="0 0 956 223" fill="none" xmlns="http://www.w3.org/2000/svg">
    <g id="desktop-hero-frame_svg__desktop-hero-frame">
        <g id="desktop-hero-frame_svg__Computing_Society" font-family="Roboto Slab" font-size="48.762" font-weight="bold" letter-spacing="0em">
            <text fill="#000" xml:space="preserve" style="white-space:pre"><tspan x="4.405" y="67.941">Computing </tspan></text>
            <text fill="#C62828" xml:space="preserve" style="white-space:pre"><tspan x="274.214" y="67.941">Society</tspan></text>
        </g>
        <text id="desktop-hero-frame_svg__exploring_and_learning_technology" fill="#000" xml:space="preserve" style="white-space:pre" font-family="Roboto" font-size="24" font-weight="500" letter-spacing="0em"><tspan x="4" y="113.203">exploring and learning technology</tspan></text>
        <g id="desktop-hero-frame_svg__become-member-btn" filter="url(#desktop-hero-frame_svg__filter0_d)">
            <rect x="4" y="142" width="219" height="52" rx="5" fill="#00A3FF"/>
            <text id="desktop-hero-frame_svg__Become_a_member" fill="#fff" xml:space="preserve" style="white-space:pre" font-family="Roboto Slab" font-size="19.5" font-weight="bold" letter-spacing="0em" text-decoration="underline"><tspan x="28" y="175.574"><a href="https://www.napierstudents.com/organisation/societies/7541/">Become a member</a></tspan></text>
        </g>
        <g id="desktop-hero-frame_svg__info-hero-card" filter="url(#desktop-hero-frame_svg__filter1_d)">
            <path id="desktop-hero-frame_svg__Vector_22" d="M940.255 4H714.503c-2.34 0-4.358 1.626-4.939 3.892-9.588 37.37-34.688 70.01-20.064 96.108 14.367 25.639-12.503 59.142-22.979 96.944-.855 3.086 1.521 6.056 4.724 6.056h225.752c2.34 0 4.357-1.626 4.944-3.892 9.952-38.413 37.059-68.63 22.145-99.108-14.606-29.849 10.746-57.904 20.881-93.944.867-3.083-1.509-6.056-4.712-6.056z" fill="#fff"/>
            <path id="desktop-hero-frame_svg__code-icon" d="m799.678 143.425-9.115-2.645c-.956-.269-1.494-1.27-1.225-2.227l20.396-70.259c.269-.956 1.27-1.494 2.227-1.225l9.114 2.645c.957.269 1.495 1.27 1.226 2.226L801.904 142.2a1.79 1.79 0 0 1-2.226 1.226zm-17.034-16.766 6.5-6.933a1.793 1.793 0 0 0-.12-2.57l-13.538-11.909 13.538-11.91a1.78 1.78 0 0 0 .12-2.57l-6.5-6.932a1.796 1.796 0 0 0-2.541-.075l-21.531 20.172a1.78 1.78 0 0 0 0 2.615l21.531 20.187a1.783 1.783 0 0 0 2.541-.075zm48.891.09 21.532-20.187a1.781 1.781 0 0 0 0-2.615l-21.532-20.202a1.81 1.81 0 0 0-2.54.075l-6.5 6.933a1.793 1.793 0 0 0 .119 2.57l13.538 11.924-13.538 11.909a1.78 1.78 0 0 0-.119 2.57l6.5 6.933c.672.732 1.808.762 2.54.09z" fill="#000"/>
        </g>
    </g>
    <defs>
        <filter id="desktop-hero-frame_svg__filter0_d" x="0" y="142" width="227" height="60" filterUnits="userSpaceOnUse" color-interpolation-filters="sRGB">
            <feFlood flood-opacity="0" result="BackgroundImageFix"/>
            <feColorMatrix in="SourceAlpha" type="matrix" values="0 0 0 0 0 0 0 0 0 0 0 0 0 0 0 0 0 0 127 0"/>
            <feOffset dy="4"/>
            <feGaussianBlur stdDeviation="2"/>
            <feColorMatrix type="matrix" values="0 0 0 0 0 0 0 0 0 0 0 0 0 0 0 0 0 0 0.25 0"/>
            <feBlend mode="normal" in2="BackgroundImageFix" result="effect1_dropShadow"/>
            <feBlend mode="normal" in="SourceGraphic" in2="effect1_dropShadow" result="shape"/>
        </filter>
        <filter id="desktop-hero-frame_svg__filter1_d" x="655" y="0" width="301.5" height="223" filterUnits="userSpaceOnUse" color-interpolation-filters="sRGB">
            <feFlood flood-opacity="0" result="BackgroundImageFix"/>
            <feColorMatrix in="SourceAlpha" type="matrix" values="0 0 0 0 0 0 0 0 0 0 0 0 0 0 0 0 0 0 127 0"/>
            <feOffset dy="6"/>
            <feGaussianBlur stdDeviation="5"/>
            <feColorMatrix type="matrix" values="0 0 0 0 0 0 0 0 0 0 0 0 0 0 0 0 0 0 0.49 0"/>
            <feBlend mode="normal" in2="BackgroundImageFix" result="effect1_dropShadow"/>
            <feBlend mode="normal" in="SourceGraphic" in2="effect1_dropShadow" result="shape"/>
        </filter>
    </defs>
</svg>
